<?xml version="1.0" encoding="utf-8"?>
<!-- Generator: Adobe Illustrator 15.1.0, SVG Export Plug-In  -->
<!DOCTYPE svg PUBLIC "-//W3C//DTD SVG 1.1//EN" "http://www.w3.org/Graphics/SVG/1.1/DTD/svg11.dtd" [
	<!ENTITY ns_flows "http://ns.adobe.com/Flows/1.0/">
]>
<svg version="1.1"
	 xmlns="http://www.w3.org/2000/svg" xmlns:xlink="http://www.w3.org/1999/xlink" xmlns:a="http://ns.adobe.com/AdobeSVGViewerExtensions/3.0/"
	 x="0px" y="0px" width="220px" height="86px" viewBox="2.5 0.97 220 86" enable-background="new 2.5 0.97 220 86"
	 xml:space="preserve">
<defs>
</defs>
<path d="M154.73,35.88c-1.04-1.58-2.35-2.82-3.94-3.7c-1.58-0.89-3.44-1.33-5.57-1.33c-2.09,0-3.88,0.31-5.39,0.92
	c-1.51,0.61-2.79,1.4-3.83,2.37c-1.04,0.97-1.88,2.04-2.52,3.22c-0.64,1.17-1.13,2.34-1.49,3.49v17.83
	c0.46,1.22,1.07,2.36,1.83,3.42c0.77,1.06,1.7,1.97,2.79,2.75c1.09,0.78,2.36,1.38,3.81,1.82c1.45,0.43,3.07,0.65,4.87,0.65
	c2.11,0,3.96-0.44,5.54-1.33c1.58-0.89,2.89-2.13,3.92-3.72c1.03-1.59,1.8-3.48,2.32-5.66s0.77-4.57,0.77-7.16v-0.75
	c0-2.59-0.26-4.97-0.77-7.16S155.77,37.46,154.73,35.88z"/>
<path d="M114.76,36.18c-1.29-1.62-2.88-2.91-4.75-3.88s-3.99-1.46-6.36-1.46c-2.37,0-4.49,0.49-6.36,1.46
	c-1.87,0.97-3.45,2.27-4.73,3.88c-1.28,1.62-2.27,3.48-2.95,5.57c-0.68,2.1-1.02,4.29-1.02,6.56v1.51c0,2.33,0.34,4.54,1.02,6.65
	c0.68,2.11,1.67,3.97,2.97,5.57c1.29,1.61,2.88,2.88,4.75,3.83c1.87,0.95,4,1.42,6.4,1.42c2.37,0,4.49-0.47,6.35-1.42
	c1.86-0.95,3.43-2.22,4.71-3.83c1.28-1.61,2.27-3.46,2.95-5.57c0.68-2.11,1.02-4.33,1.02-6.65v-1.51c0-2.28-0.34-4.46-1.02-6.56
	C117.04,39.66,116.05,37.8,114.76,36.18z"/>
<path d="M195.59,36.18c-1.29-1.62-2.88-2.91-4.75-3.88s-3.99-1.46-6.36-1.46c-2.37,0-4.49,0.49-6.36,1.46
	c-1.87,0.97-3.45,2.27-4.73,3.88c-1.28,1.62-2.27,3.48-2.95,5.57c-0.68,2.1-1.02,4.29-1.02,6.56v1.51c0,2.33,0.34,4.54,1.02,6.65
	c0.68,2.11,1.67,3.97,2.97,5.57c1.29,1.61,2.88,2.88,4.75,3.83c1.87,0.95,4,1.42,6.4,1.42c2.37,0,4.49-0.47,6.35-1.42
	c1.86-0.95,3.43-2.22,4.71-3.83c1.28-1.61,2.27-3.46,2.95-5.57c0.68-2.11,1.02-4.33,1.02-6.65v-1.51c0-2.28-0.34-4.46-1.02-6.56
	C197.87,39.66,196.88,37.8,195.59,36.18z"/>
<path d="M0,0v87.45h224.5V0H0z M77.79,68.53h-1.94V43.36c0-2.47-0.26-4.52-0.79-6.15c-0.53-1.63-1.26-2.92-2.21-3.87
	c-0.95-0.95-2.07-1.61-3.38-2c-1.31-0.38-2.73-0.56-4.26-0.54c-1.53,0.02-2.93,0.23-4.19,0.63c-1.26,0.4-2.39,0.92-3.4,1.56
	c-1.01,0.65-1.88,1.38-2.62,2.21c-0.74,0.83-1.37,1.67-1.89,2.53c-0.52,0.86-0.92,1.72-1.2,2.57c-0.29,0.85-0.46,1.62-0.5,2.32
	v25.89h-1.94V42.64c0-2.32-0.26-4.25-0.79-5.77c-0.53-1.52-1.26-2.73-2.21-3.63c-0.95-0.9-2.07-1.53-3.38-1.89
	c-1.31-0.36-2.73-0.54-4.26-0.54c-2.16,0-4.04,0.44-5.65,1.33c-1.61,0.89-2.96,2-4.06,3.33c-1.1,1.33-1.98,2.76-2.63,4.28
	c-0.65,1.52-1.09,2.92-1.33,4.19v24.59h-1.98V29.62h1.98v9.21c0.58-1.39,1.3-2.69,2.18-3.9c0.87-1.21,1.9-2.26,3.07-3.15
	c1.17-0.89,2.48-1.59,3.9-2.1c1.43-0.52,2.97-0.77,4.62-0.77c3.26,0,5.93,0.72,8,2.16c2.07,1.44,3.43,3.79,4.08,7.05
	c0.53-1.29,1.24-2.5,2.14-3.61s1.96-2.09,3.18-2.91c1.22-0.83,2.59-1.48,4.1-1.96c1.51-0.48,3.14-0.72,4.89-0.72
	c1.97,0,3.72,0.27,5.27,0.81c1.55,0.54,2.85,1.39,3.92,2.55c1.07,1.16,1.88,2.66,2.45,4.48c0.56,1.82,0.84,4.03,0.84,6.62V68.53z
	 M120.69,49.83c0,2.85-0.41,5.47-1.22,7.84c-0.81,2.37-1.97,4.42-3.47,6.13c-1.5,1.71-3.29,3.05-5.38,4.01
	c-2.09,0.96-4.39,1.44-6.9,1.44c-2.54,0-4.86-0.48-6.96-1.44c-2.1-0.96-3.9-2.29-5.39-4.01c-1.5-1.71-2.66-3.76-3.49-6.13
	c-0.83-2.37-1.24-4.99-1.24-7.84v-1.51c0-2.85,0.41-5.47,1.24-7.84c0.83-2.37,1.99-4.42,3.49-6.13c1.5-1.71,3.29-3.05,5.38-4.01
	s4.39-1.44,6.9-1.44c2.54,0,4.86,0.48,6.96,1.44c2.1,0.96,3.89,2.3,5.38,4.01c1.49,1.71,2.64,3.76,3.47,6.13
	c0.83,2.37,1.24,4.99,1.24,7.84V49.83z M159.85,49.43c0,2.97-0.33,5.68-0.99,8.11c-0.66,2.43-1.61,4.52-2.86,6.26
	c-1.25,1.74-2.77,3.08-4.58,4.03c-1.81,0.95-3.87,1.42-6.17,1.42c-1.61,0-3.09-0.17-4.44-0.52c-1.35-0.35-2.58-0.83-3.69-1.44
	c-1.1-0.61-2.09-1.34-2.95-2.18c-0.86-0.84-1.59-1.75-2.19-2.73v6.15h-1.94V13.3h1.94V36.7c0.62-1.17,1.36-2.24,2.21-3.2
	c0.85-0.96,1.83-1.78,2.93-2.46c1.1-0.68,2.32-1.21,3.67-1.58c1.34-0.37,2.8-0.56,4.39-0.56c2.3,0,4.36,0.46,6.18,1.37
	c1.82,0.91,3.36,2.22,4.62,3.92c1.26,1.7,2.22,3.78,2.88,6.22c0.66,2.44,0.99,5.2,0.99,8.27V49.43z M201.52,49.83
	c0,2.85-0.41,5.47-1.22,7.84c-0.81,2.37-1.97,4.42-3.47,6.13s-3.29,3.05-5.38,4.01c-2.09,0.96-4.39,1.44-6.9,1.44
	c-2.54,0-4.86-0.48-6.96-1.44c-2.1-0.96-3.9-2.29-5.39-4.01c-1.5-1.71-2.66-3.76-3.49-6.13c-0.83-2.37-1.24-4.99-1.24-7.84v-1.51
	c0-2.85,0.41-5.47,1.24-7.84c0.83-2.37,1.99-4.42,3.49-6.13c1.5-1.71,3.29-3.05,5.38-4.01s4.39-1.44,6.9-1.44
	c2.54,0,4.86,0.48,6.96,1.44s3.89,2.3,5.38,4.01c1.49,1.71,2.64,3.76,3.47,6.13s1.24,4.99,1.24,7.84V49.83z"/>
<path fill="#FFFFFF" d="M74.5,32.26c-1.07-1.16-2.37-2.01-3.92-2.55c-1.55-0.54-3.3-0.81-5.27-0.81c-1.75,0-3.38,0.24-4.89,0.72
	c-1.51,0.48-2.88,1.13-4.1,1.96c-1.22,0.83-2.28,1.8-3.18,2.91s-1.61,2.32-2.14,3.61c-0.65-3.26-2.01-5.61-4.08-7.05
	c-2.07-1.44-4.74-2.16-8-2.16c-1.65,0-3.19,0.26-4.62,0.77c-1.43,0.52-2.73,1.22-3.9,2.1c-1.17,0.89-2.2,1.94-3.07,3.15
	c-0.88,1.21-1.6,2.51-2.18,3.9v-9.21h-1.98v38.91h1.98V43.93c0.24-1.27,0.68-2.67,1.33-4.19c0.65-1.52,1.52-2.95,2.63-4.28
	c1.1-1.33,2.46-2.44,4.06-3.33c1.61-0.89,3.49-1.33,5.65-1.33c1.53,0,2.95,0.18,4.26,0.54c1.31,0.36,2.43,0.99,3.38,1.89
	c0.95,0.9,1.68,2.11,2.21,3.63c0.53,1.52,0.79,3.45,0.79,5.77v25.89h1.94V42.64c0.05-0.69,0.22-1.47,0.5-2.32
	c0.29-0.85,0.69-1.71,1.2-2.57c0.52-0.86,1.15-1.71,1.89-2.53c0.74-0.83,1.62-1.56,2.62-2.21c1.01-0.65,2.14-1.17,3.4-1.56
	c1.26-0.4,2.65-0.61,4.19-0.63c1.53-0.02,2.95,0.16,4.26,0.54c1.31,0.38,2.43,1.05,3.38,2c0.95,0.95,1.68,2.24,2.21,3.87
	c0.53,1.63,0.79,3.68,0.79,6.15v25.17h1.94V43.36c0-2.59-0.28-4.79-0.84-6.62C76.39,34.92,75.57,33.43,74.5,32.26z"/>
<path fill="#FFFFFF" d="M115.98,34.35c-1.49-1.71-3.28-3.05-5.38-4.01c-2.1-0.96-4.42-1.44-6.96-1.44c-2.52,0-4.82,0.48-6.9,1.44
	s-3.88,2.3-5.38,4.01c-1.5,1.71-2.66,3.76-3.49,6.13c-0.83,2.37-1.24,4.99-1.24,7.84v1.51c0,2.85,0.41,5.47,1.24,7.84
	c0.83,2.37,1.99,4.42,3.49,6.13c1.5,1.71,3.3,3.05,5.39,4.01c2.1,0.96,4.42,1.44,6.96,1.44c2.52,0,4.82-0.48,6.9-1.44
	c2.09-0.96,3.88-2.29,5.38-4.01c1.5-1.71,2.65-3.76,3.47-6.13c0.81-2.37,1.22-4.99,1.22-7.84v-1.51c0-2.85-0.41-5.47-1.24-7.84
	C118.62,38.11,117.47,36.06,115.98,34.35z M118.75,49.83c0,2.33-0.34,4.54-1.02,6.65c-0.68,2.11-1.67,3.97-2.95,5.57
	c-1.28,1.61-2.85,2.88-4.71,3.83c-1.86,0.95-3.97,1.42-6.35,1.42c-2.4,0-4.53-0.47-6.4-1.42c-1.87-0.95-3.45-2.22-4.75-3.83
	c-1.29-1.61-2.28-3.46-2.97-5.57c-0.68-2.11-1.02-4.33-1.02-6.65v-1.51c0-2.28,0.34-4.46,1.02-6.56c0.68-2.1,1.67-3.96,2.95-5.57
	c1.28-1.62,2.86-2.91,4.73-3.88c1.87-0.97,3.99-1.46,6.36-1.46c2.37,0,4.49,0.49,6.36,1.46s3.45,2.27,4.75,3.88s2.28,3.48,2.97,5.57
	c0.68,2.1,1.02,4.29,1.02,6.56V49.83z"/>
<path fill="#FFFFFF" d="M155.98,34.19c-1.26-1.7-2.8-3.01-4.62-3.92c-1.82-0.91-3.88-1.37-6.18-1.37c-1.58,0-3.04,0.19-4.39,0.56
	c-1.34,0.37-2.57,0.9-3.67,1.58c-1.1,0.68-2.08,1.5-2.93,2.46c-0.85,0.96-1.59,2.03-2.21,3.2V13.3h-1.94v55.23h1.94v-6.15
	c0.6,0.98,1.33,1.89,2.19,2.73c0.86,0.84,1.85,1.56,2.95,2.18c1.1,0.61,2.33,1.09,3.69,1.44c1.35,0.35,2.83,0.52,4.44,0.52
	c2.3,0,4.36-0.47,6.17-1.42c1.81-0.95,3.34-2.29,4.58-4.03c1.25-1.74,2.2-3.82,2.86-6.26c0.66-2.43,0.99-5.14,0.99-8.11v-0.75
	c0-3.07-0.33-5.83-0.99-8.27C158.2,37.96,157.24,35.89,155.98,34.19z M157.84,49.43c0,2.59-0.26,4.97-0.77,7.16
	s-1.29,4.07-2.32,5.66c-1.03,1.59-2.34,2.83-3.92,3.72c-1.58,0.89-3.43,1.33-5.54,1.33c-1.8,0-3.42-0.22-4.87-0.65
	c-1.45-0.43-2.72-1.04-3.81-1.82c-1.09-0.78-2.02-1.7-2.79-2.75c-0.77-1.05-1.38-2.19-1.83-3.42V40.84
	c0.36-1.15,0.86-2.31,1.49-3.49c0.63-1.17,1.47-2.25,2.52-3.22c1.04-0.97,2.32-1.76,3.83-2.37c1.51-0.61,3.31-0.92,5.39-0.92
	c2.13,0,3.99,0.44,5.57,1.33c1.58,0.89,2.89,2.12,3.94,3.7c1.04,1.58,1.82,3.46,2.34,5.65s0.77,4.57,0.77,7.16V49.43z"/>
<path fill="#FFFFFF" d="M196.81,34.35c-1.49-1.71-3.28-3.05-5.38-4.01s-4.42-1.44-6.96-1.44c-2.52,0-4.82,0.48-6.9,1.44
	s-3.88,2.3-5.38,4.01c-1.5,1.71-2.66,3.76-3.49,6.13c-0.83,2.37-1.24,4.99-1.24,7.84v1.51c0,2.85,0.41,5.47,1.24,7.84
	c0.83,2.37,1.99,4.42,3.49,6.13c1.5,1.71,3.3,3.05,5.39,4.01c2.1,0.96,4.42,1.44,6.96,1.44c2.52,0,4.82-0.48,6.9-1.44
	c2.09-0.96,3.88-2.29,5.38-4.01s2.65-3.76,3.47-6.13c0.82-2.37,1.22-4.99,1.22-7.84v-1.51c0-2.85-0.41-5.47-1.24-7.84
	S198.3,36.06,196.81,34.35z M199.58,49.83c0,2.33-0.34,4.54-1.02,6.65c-0.68,2.11-1.67,3.97-2.95,5.57
	c-1.28,1.61-2.85,2.88-4.71,3.83c-1.86,0.95-3.97,1.42-6.35,1.42c-2.4,0-4.53-0.47-6.4-1.42c-1.87-0.95-3.45-2.22-4.75-3.83
	c-1.29-1.61-2.28-3.46-2.97-5.57c-0.68-2.11-1.02-4.33-1.02-6.65v-1.51c0-2.28,0.34-4.46,1.02-6.56c0.68-2.1,1.67-3.96,2.95-5.57
	c1.28-1.62,2.86-2.91,4.73-3.88c1.87-0.97,3.99-1.46,6.36-1.46c2.37,0,4.49,0.49,6.36,1.46s3.45,2.27,4.75,3.88s2.28,3.48,2.97,5.57
	c0.68,2.1,1.02,4.29,1.02,6.56V49.83z"/>
</svg>
