<?xml version="1.0" encoding="utf-8"?>
<!-- Generator: Adobe Illustrator 15.1.0, SVG Export Plug-In  -->
<!DOCTYPE svg PUBLIC "-//W3C//DTD SVG 1.1//EN" "http://www.w3.org/Graphics/SVG/1.1/DTD/svg11.dtd" [
	<!ENTITY ns_flows "http://ns.adobe.com/Flows/1.0/">
]>
<svg version="1.1"
	 xmlns="http://www.w3.org/2000/svg" xmlns:xlink="http://www.w3.org/1999/xlink" xmlns:a="http://ns.adobe.com/AdobeSVGViewerExtensions/3.0/"
	 x="0px" y="0px" width="507px" height="237px" viewBox="-12 -6 507 237" enable-background="new -12 -6 507 237"
	 xml:space="preserve">
<defs>
</defs>
<g fill="#FFFFFF">
	<g>
		<path fill-rule="evenodd" clip-rule="evenodd" d="M59.4,6.9c-0.1,1.6-0.8,2.6-1.6,3.5c-0.8,3.1-2,5.8-2.9,8.6
			c-1.1,3.4-1.6,7.1-2.2,11.7c-3,1-3.6-2.2-4.4-4c-1-2.1-2.1-4.4-2.4-6.4c-2.3,1.9-2,6.4-2.9,9.8c-0.7,0.3-0.8-0.1-1.8,0
			c-2.1-5.7-3.6-12-6-17.7c-0.4-0.9-0.7-2.1-1.1-2.9c-0.4-0.7-1.8-1.1-1.1-2.2c2.3-0.8,2.8,1.6,3.3,2.9c1.8,4.4,3.3,10.3,5.5,14.2
			c1.2-1.4,1.4-8.1,3.8-8.4c2.3-0.4,1.9,2.3,2.2,4c0.3,1.3,0.8,2.4,1.3,3.8c0.5,1.3,0.6,3,1.8,3.3c1.6-7.4,4-14,6.4-20.6
			C58.3,6.3,58.9,6.6,59.4,6.9z"/>
		<path fill-rule="evenodd" clip-rule="evenodd" d="M100.6,7.8c-0.4,5.3-0.8,11.3,0.2,16.8c0.4,2.2,1.7,4.4,1.1,6.4
			c-3.4-0.2-1.9-5.5-3.5-7.5c-1.6,3.1-1.9,7.9-6,8c-2.6,0.1-4.6-2.5-4.9-4.9c-0.5-3.9,2.1-7.4,4.4-8.9c2.9-0.4,3.8,1.1,5.3,2
			c1.3-3.7,0.1-9.6,1.3-12.9C99.8,6.7,100,7.4,100.6,7.8z M92.4,29.5c2.4-0.2,3.3-5.2,4-6.9c-0.7-1-1.3-2.1-2.2-2.9
			C89.5,19.2,87.9,29.9,92.4,29.5z"/>
		<path fill-rule="evenodd" clip-rule="evenodd" d="M422.5,29.7c-2.3,0.6-2.5-3-2.7-4.7c-1.5,0.2-1.9,2.1-2.9,3.1
			c-1,1-2.8,2.4-4.2,2.4c-5,0.1-4.4-7.6-2.2-10c2-2.3,6.5-3.2,8.2,0.2c1.4-1.6,1-4.7,1.3-7.3c0.2-1.6,0.6-3.1,1.1-4.2
			c-0.1-0.4,0.2-0.4,0.2-0.7c3.2,0.6,1.3,5.3,0.7,8.6c-0.3,1.3-0.6,2.9-0.7,4C421.2,25,422.5,26.9,422.5,29.7z M411.4,28.2
			c3.8-0.2,5.9-3.2,5.3-7.1C412.9,20.3,409.7,24.8,411.4,28.2z"/>
		<path fill-rule="evenodd" clip-rule="evenodd" d="M402.8,27.5c1.4,0.9,3.4-0.7,4.2,0.2c-0.6,3.5-5.7,2.1-6.4-0.2
			c-1.3-6.7,2-12,3.1-17.7c2.9,0.4,1.8,2.8,0.9,5.5C403.4,18.6,401.7,23.6,402.8,27.5z"/>
		<path fill-rule="evenodd" clip-rule="evenodd" d="M202.6,15.3c-1.3-0.2-1.4-1.6-2.4-2c-3.4-0.3-7.8,3.3-6.9,6.9
			c0.6,2.5,5,0.7,4.9,3.5c-0.6,1.2-1.7,0.4-2.7,0.7c-2.5,0.6-5.4,2.9-4.4,5.5c1.1,3.1,5.8,1.8,8.9,1.8c-1.2,3.7-7.5,2.1-10,0.4
			c-3.3-3.2-0.4-8,2.9-9.1c-3.6-3.4-1-9.1,2.9-11.1c1-0.5,2.8-1,4-0.9C201.3,11.2,204.4,12.5,202.6,15.3z"/>
		<path fill-rule="evenodd" clip-rule="evenodd" d="M379.3,20.6c1.9,1.1,5.2,1.4,5.5,4.2c0.4,3-3,6.5-6.2,6.9
			c-3.8,0.5-6.2-2.2-8-4.7c0.6-4.1,1-9,0.7-12.9c-1.8,0.5-3.2,1.2-4.4,2.2c-0.6,0.4-0.2,1.8-0.9,2c-1.5-0.2-1.9-1.1-1.8-2.4
			c0.3-2.5,5.9-4.8,10.2-4.2C379.3,12.4,382.3,16.9,379.3,20.6z M378.2,15.7c-0.4-1.3-4-2.4-5.8-1.8c0.2,0.7,1,0.7,1.1,1.6
			c0.5,1.4-0.1,4,0.4,5.3C376.2,20.2,378.9,18.1,378.2,15.7z M374.8,23.7c-0.7,0.2-0.7-0.4-1.3-0.2c-0.1,1.5-0.4,2.7-0.7,4
			c2.6,3.8,9.5,1.2,9.8-3.1C381.4,22.6,376.7,22.2,374.8,23.7z"/>
		<path fill-rule="evenodd" clip-rule="evenodd" d="M252.7,30.8c1.1,0.1,1.9-0.9,2.9-0.2c-1,3.4-5.2,2.8-5.5-0.9
			c-0.2-2,1-4.8,1.6-7.5c0.6-3,0.7-6.3,0.9-7.8c-0.1-0.4,0.2-0.4,0.2-0.7c3.5-0.1,1.6,5.3,1.1,8.4C253.2,25.7,252.2,28.6,252.7,30.8
			z"/>
		<path fill-rule="evenodd" clip-rule="evenodd" d="M394.1,14.9c0,0.6,0.1,1.5-0.2,1.8c-1.5,0.7-3.3-1.8-1.8-2.9
			C392.9,14,393.5,14.4,394.1,14.9z"/>
		<path fill-rule="evenodd" clip-rule="evenodd" d="M67.8,18.6c6,2.3,2.5,13.1-3.3,13.5c-4.5,0.3-6.4-3.8-5.8-7.8
			c0.4-2.6,2.7-6,5.1-6.2C65.2,18.1,66,19,67.8,18.6z M63.2,20.6c-0.1,0-1.4,1.5-1.8,2.2c-1.4,2.7-0.6,6.1,1.3,7.3
			c4.9,0.8,7.4-5,5.8-8.2c-0.2,0.6-0.6,1-1.6,0.9C65.8,21.1,65.1,19.6,63.2,20.6z"/>
		<path fill-rule="evenodd" clip-rule="evenodd" d="M84.7,20.6c-1.1,1.2-3.8,0.8-6,0.9c-1,2.1,3.4,7.3,1.1,8.6
			c-0.6,0.3-1.3-0.4-1.8-1.1c-1.6-2.4-1.5-7.2-2.4-10c1.4-1.2,2.6,0.3,4.2,0.7C81.7,20.2,84,19.1,84.7,20.6z"/>
		<path fill-rule="evenodd" clip-rule="evenodd" d="M392.6,21.9c-0.2,1.7-1.2,3.8-0.4,5.8c0,0.3,1.1-0.2,1.8,0
			c0.2,1.4-0.1,2.4-0.9,2.9c-4.6,0.2-3.8-6.9-2.7-10C391.7,20.5,392,21.3,392.6,21.9z"/>
		<path fill-rule="evenodd" clip-rule="evenodd" d="M231.6,23.5c-0.9,0.7-1.6-0.4-2.7-0.2c-2.5,1.1-4.6,4.2-3.8,6.9
			c0.7,2.1,3.6,2.8,6,2.4c1.2-0.2,2.1-1.1,3.3-0.4c-0.2,1.7-1.8,2.3-3.1,2.4c-4.3,0.5-9.5-2.3-8.6-7.5
			C223.3,23.7,229.3,17.4,231.6,23.5z"/>
		<path fill-rule="evenodd" clip-rule="evenodd" d="M211.3,25.3c1.9-1,3.1-4.7,5.8-3.5c-0.5,2.5-2.8,3.2-3.8,5.3
			c1.2,1.4,3.2,2,3.5,4.2c-0.2,0-0.2,0.3-0.2,0.4c-0.3,0.3-1.1,0.2-1.8,0.2c-0.6-1.5-1.7-2.4-2.9-3.3c-2.3,1.3-2.9,4.4-5.1,5.8
			c-0.8-0.1-1.2-0.8-1.6-1.3c1-2.6,3.2-3.9,4.4-6.2c-1-2-4.2-2.8-3.5-5.8C209.1,21.3,209.1,24.3,211.3,25.3z"/>
		<path fill-rule="evenodd" clip-rule="evenodd" d="M238.1,29.9c-0.1,1.9,0.5,3.3,2,3.8c1.8,0.5,3.8-0.8,5.1-0.7
			c-0.2,2.6-2.8,2.8-4.4,2.7c-1.2-0.1-3.2-1.2-4-2.2c-3-4,0.5-9.6,4-10.9c1.1-0.4,3.2,1.1,3.3,2.4C244.5,28.4,241.2,30,238.1,29.9z
			 M239,27.5c1.7-0.1,2.4-1.1,2.9-2.4C240.3,25.2,239.6,26.3,239,27.5z"/>
		<path fill-rule="evenodd" clip-rule="evenodd" d="M174.9,41c9.8,1.7,19.8,0.6,29.3,0.4c10.4-0.1,20.6,0.7,30.8,0.7
			c17.1,0,35-0.3,52.8-0.4c2.5,0,5-0.2,7.5,0.2c1,2.3,0.8,4.9,0.7,7.3c-0.1,2.5-0.3,5.1-0.4,7.5c-0.4,9.4,0.8,19.1,1.1,29
			c0.2,4.9,0.3,9.9,0.2,14.9c-0.1,14.3-1.9,29.8-1.3,45.7c0.1,3.3-0.1,6.5,0.2,10c0.1,1.1-0.2,2.4,0.9,3.1c-1.2,1.5-0.9,3.4-0.9,5.1
			c0,12.5-0.4,25.7,0,38.3c-1.1,0.3-1.8,1.1-2.7,1.6c-18.7-0.4-41.6,0.2-56.5-0.2c-16.2-0.4-30,1.3-46.1,1.3c-4.8,0-11.7,1-14.4-0.9
			c-0.3-0.2-0.6-1.2-1.6-1.1c0-13.6-0.5-27.5-0.7-41c-0.2-20.4-0.8-42.2-0.2-61c0.6-18.5,1-38.4,0.7-60.1
			C174.4,41.2,174.6,41.1,174.9,41z M177.1,43.9c-0.3,3.3-0.3,8.3,0,12.2c9.8-0.3,21.7-0.3,31-0.9c-0.4-4-0.6-8.1-1.6-11.5
			C195.9,43.6,188.1,45.1,177.1,43.9z M209.9,43.7c0.7,4.2,0.8,7.8,1.8,11.5c7.3-0.3,17.9-0.1,27.3,0.2c0.2-2.8,0.5-7.3,0.7-10.9
			C230.1,44.1,221.5,43.8,209.9,43.7z M241.8,44.6c0,3.3-0.9,6.7-0.7,10.9c9.8,0.1,17.5-0.4,27.3-0.2c0.5-3.8,0.7-7.6,0.2-11.3
			C259,43.9,250.9,44.2,241.8,44.6z M270.9,43.9c0.2,3.5,0.1,7-0.2,11.3c7.3,0.4,15.6,0.5,22.4,1.1c0.2-3.1,0.8-8.6,0.2-12.4
			C285.1,44,279.3,43.9,270.9,43.9z M211.9,58.3c-0.1,3.3,0.2,6.3,0.7,9.1c8.7-0.3,17.4-0.6,26.8-0.7c-0.4-2.5-0.1-5-0.2-8.2
			C230.1,58.2,219.7,58.2,211.9,58.3z M177.1,59c-0.4,2.9,0.1,7.3-0.4,11.1c11.2,0.3,19.9-2.9,32.4-2.7c-0.3-2.9-0.2-6.1-0.7-8.9
			C198.9,58.4,188.8,59.3,177.1,59z M241.2,58.5c0,2.7,0.3,5.2,0.2,8.2c10.5,0.3,17.4-0.1,27-0.2c0-2.7,0-5.3,0-8
			C258.7,57.9,251.5,58.7,241.2,58.5z M270.4,58.5c-0.2,2.6-0.2,4.9,0,8.2c7.7,0.3,15.4,0.5,23.1-0.9c-0.3-1.9-0.4-4.1-0.4-6.2
			C285,59.2,278.5,58.4,270.4,58.5z M270.4,68.9c0.2,3.8,0.8,7.1,0.7,11.3c7-0.4,14.9-0.8,23.1-1.1c-0.2-3.6-0.6-7.1-0.7-10.9
			C286.6,69.2,277.3,68.8,270.4,68.9z M212.6,69.4c-0.1,4.6,0.3,9.3,0.2,13.1c7.5-0.4,18.1-1,27-1.3c0.2-3.5-0.2-8.2-0.4-12.4
			C230.7,68.7,221.5,68.8,212.6,69.4z M241.6,68.7c0,3.5,0.4,7.9,0.4,12.4c8.5-0.4,18.3-0.6,27-0.9c0-4.7-0.3-7.3-0.7-11.5
			C260.5,68.6,251.2,68.8,241.6,68.7z M176.7,72.3c0,3.5,0,7.1,0,10.6c9.8,0.9,21.7-0.4,32.6-0.2c0.5-4.4-0.2-8,0-13.3
			C198.2,68.5,187.8,72.6,176.7,72.3z M271.3,82.2c-0.2,5,0.3,9.8,0.2,15.3c7.6-0.4,15.9-0.6,23.1-1.1c0.1-5.6-0.2-9.6-0.2-14.9
			C287.5,81.7,279.3,82,271.3,82.2z M242.1,82.9c-0.3,4.4-0.6,8.7-0.7,13.3c8.4,0.7,20,1.4,28.2,1.3c0.1-6.1-0.3-9.1-0.2-15.1
			C261.8,81.8,250.9,83,242.1,82.9z M212.8,84.2c-0.7,3.7-0.9,7.9-1.1,12c9.2,0,18.5,0,27.7,0c0-4.7,0.3-8.3,0.4-13.1
			C230.5,83.3,222.2,84,212.8,84.2z M176.7,85.3c0,4.4-0.6,6.9-0.4,12c9.3,0.9,22.5-0.5,32.4-1.1c0.1-4.1,0.4-8.3,0.7-11.5
			C198.5,84,187.9,85.8,176.7,85.3z M211.5,98.2c-0.1,4.6-0.7,11.2-0.4,15.3c8.5,0.3,17-0.7,27.9-0.4c0.5-4.1,0-10.1,0.4-14.9
			C230.1,97.8,221.2,97.9,211.5,98.2z M176,100c0,5.2,0,9.1,0,14.2c9.5,0.9,22.2-0.1,31.7-0.4c0.5-5,0.5-10.6,0.7-15.3
			C198.6,98.3,186.4,99.9,176,100z M241.6,98.2c-0.6,3.9-0.5,10.4-0.4,14.9c9.9-0.3,19.1-0.4,28.2-1.1c-0.2-4.4,0.3-8.1,0.2-12.4
			C259.7,99.5,250.6,98.4,241.6,98.2z M294.6,98.9c-7.1,0.3-14.7,0.3-23.1,0.7c-0.5,3.9,0.1,8.9-0.4,12.2c6.8,0,15-0.3,23.3-0.2
			C294.4,107.3,295.2,102.8,294.6,98.9z M271.1,113.9c0.3,3.7,0.2,8.9,0,12.2c6.9-0.1,15.5,0,22.8-0.9c0.1-3.8,0.2-7.6,0.4-11.3
			C287.1,113.7,278.8,113.2,271.1,113.9z M241,114.8c0,4.2,0.4,7.7,0.2,12.4c8.9,0.3,19-0.6,28.2-0.9c0-4.1,0-8.3,0-12.4
			C258.8,114.3,252.1,114.8,241,114.8z M210.8,115.7c0.1,2.7-0.1,8.2,0,12.2c9.5-0.2,18.5-0.3,28.4-0.2c0.2-4.1-0.3-8.3-0.2-12.9
			C229.9,115,220.5,114.9,210.8,115.7z M175.8,116.4c0.2,5-0.5,8,0,12c1.9-0.3,3.5,0.7,5.3,0.9c8.4,1,17.8-1.3,26.6-1.1
			c-0.1-4.1,0.3-8.9-0.2-12.6C198.2,115.8,185.9,117.1,175.8,116.4z M271.1,128.3c0,5.9-0.1,9.7,0,14.4c7-0.1,15.9,0.2,22.4-0.2
			c0-4.8,0.4-10.4,0.2-14.6C285.4,127.9,278.5,127.8,271.1,128.3z M241.4,129.5c0.2,4.7,0.7,9.1,0.7,14c8.8-0.1,17.7,0,27-0.7
			c0-4.8-0.1-10.6,0.2-14.4C259.5,128.6,249.9,128.9,241.4,129.5z M210.8,129.9c0,4.6,0,10.3,0.2,14.9c10.2-0.1,19.2-0.9,29-1.1
			c0-5-0.5-9.4-0.7-14.2C227.2,129.6,221.7,129.4,210.8,129.9z M175.6,130.1c0.2,3.3,0.1,10.2,0.4,15.3c11.5,0.7,20.5,0.4,31.9-0.7
			c-0.2-4.1-0.3-9.4-0.2-14.9C197,129.7,184.8,133.2,175.6,130.1z M271.1,144.8c-0.2,3.4-0.4,9.3,0,14.2c7.8,0,14.5-1.2,22.6-0.7
			c-0.1-4.9-0.2-7.7-0.2-13.3C285.9,145.2,279.6,144.6,271.1,144.8z M242.3,145.6c0.1,5.5,0.7,8.8,0.7,13.7
			c8.9-0.2,16.6-0.5,26.2-0.4c-0.4-5.6,0-8.4,0-14C259.9,145.3,250.8,145,242.3,145.6z M211,147c0,4.5,0.2,10.1,0.4,14.2
			c10.3-0.1,19.8-1.5,29.5-1.6c0-4.9-0.4-9.5-0.9-14C230.7,145.9,220.2,146.4,211,147z M176.2,147.9c-0.2,3.3,0.1,8.5,0,14
			c9.8,0.9,20.5-0.2,32.1-0.4c0-4.6-0.4-8.7-0.4-14.2C198.7,147.3,186.4,148.3,176.2,147.9z M271.1,161.2c-0.1,6,0.3,9,0,14
			c2-0.4,4.1-0.1,6.2-0.2c4.9-0.2,9.9-0.9,14.2-0.9c0.9,0,1.9,0.4,2,0c0-4.6,0.3-9,0.2-13.1C285.9,159.9,278.6,161.1,271.1,161.2z
			 M243,161.4c0.2,5.3,0.4,9.6,0.4,14.6c9,0,18.1-0.8,25.7-0.9c0.2-5,0-8.1,0-14C260.2,160.7,250.1,160.9,243,161.4z M211.5,163.1
			c0.1,4.5,0.3,8.4,0.2,13.5c10.6,0,20.5,0.1,29.7-0.4c-0.1-4.1-0.2-10.2-0.4-14.9C232.4,161.7,221.1,162.5,211.5,163.1z
			 M176.4,164.3c0.1,3.3-0.3,9,0.4,12.4c9.4,1.4,22.1-0.2,31.7,0c0-5,0-9.2-0.2-13.5C197,163.5,185.6,164.6,176.4,164.3z
			 M271.1,176.9c-0.1,4.1,0.4,6,0.4,9.8c6.9,0.2,13.9-0.5,21.7-0.4c0.4-2.7,0.4-7,0-9.8C286.1,176.7,277.5,176.9,271.1,176.9z
			 M243.6,178c0.1,3.3,0.4,6.6,0.7,9.8c7.9-0.2,16.3-0.4,25.3-0.9c-0.1-4.1-0.4-6.3-0.4-9.8C260.6,177.4,251.7,177.6,243.6,178z
			 M211.9,178.4c-0.1,4,0.1,7,0.2,10.4c11-0.5,19.2-0.4,30.1-1.3c-0.4-2.9-0.5-6.2-0.7-9.3C231.9,178.5,220.6,178.5,211.9,178.4z
			 M176.7,179.1c0.4,3.2,0.1,7,0.4,10.2c10.8,1.3,20.6,0.3,31.9-0.2c-0.1-3.5-0.2-7.1-0.4-10.4C196.7,178.3,186.8,180.1,176.7,179.1
			z M271.8,188.9c0.3,4.2,0.3,8.5,0.9,12.4c7.6-0.2,12.8-0.2,20.6,0c-0.1-4.7,0.1-8.9,0-12.9C286.1,188.3,279.8,188.9,271.8,188.9z
			 M244.3,189.8c0.4,3.2,0.1,8.4,1.1,11.7c9.4,0,16.2,0.2,24.8-0.2c0-4.2-0.5-7.9-0.4-12.2C260.2,189.2,252.6,189.3,244.3,189.8z
			 M212.4,190.6c-0.4,3.4,0.5,7.1,1.1,11.1c8.8-0.1,18.7-0.7,29.5-0.2c-0.2-3.4-0.7-7.5-0.7-11.7
			C231.7,189.7,222.1,190.6,212.4,190.6z M177.1,192c0.1,4-0.2,6.7,0,10c11.7,1.4,21.8-0.1,33,0c-1.1-2.7-0.7-7.4-1.1-10.9
			C199.1,191.3,188.2,192.4,177.1,192z"/>
		<path fill-rule="evenodd" clip-rule="evenodd" d="M134.6,45c-2.9-0.1-5.7,0.4-8.6,0.7c-2.5,0.3-5.1,0.4-7.8,0.4
			c-5.4,0.1-10.8,1.2-16.4,1.6c-7.2,0.5-14.8-0.1-22.2,0c-7.6,0.2-15.3,0.1-22.8,0c-14.8-0.1-29.3-0.1-43-1.3
			c0.3,18,1.2,37.4,2.2,57.9c0.3,6.4,1.3,12.8,1.6,19.1c0.3,7.1,0.2,14.1,0.2,21.1c0.1,18.9,0.9,39.5,1.6,58.3c13.8-0.9,29-2,44.3-2
			c4.9,0,10,0,14.9-0.2c13.5-0.6,28.6-1.6,43.9-2c1.8,0,3.5-0.2,7.1-0.2c1.3,0,5.8-0.8,6,1.3c0.2,2.4-4.1,1.8-6.4,1.8
			c-16.5-0.5-35.7,1.1-53,1.6c-13.8,0.3-30.5,0.7-45.7,1.6c-4.8,0.3-9.8,1.6-14-0.2c0-1.7,0.2-3.4,0.2-5.1c0-3.4-0.3-6.6-0.4-10.2
			c-0.1-1.5,0.2-2.9,0.2-4.4c0.1-6.7-0.6-13.4-0.7-20.2c-0.1-6.8-0.2-13.7-0.2-20.6c0-6.9,0-13.9-0.4-20.8c-0.4-6.4-1.2-13-1.6-19.7
			c-0.3-5.7-0.6-11.1-0.7-18c-0.1-6.4-1.1-15.4-1.3-22.6c-0.1-4.8,0.2-9.6,0-14c-0.1-1.6-0.4-3.3,0.4-4.7c8.4,0,16.6,1.7,25,1.6
			c21.5-0.3,41.6,0.8,62.7,0c4.2-0.2,8.2-1,12.4-1.3c3.7-0.3,7.5-0.2,11.3-0.4c3.6-0.3,7.7-0.3,11.1-1.6c0.6-0.2,1-0.5,1.8-0.2
			c1.3,0.5,1,1.7,0.7,4c-1.4,10.4-2.3,22.7-3.5,33.3c-1.4,12.1-1,28.9-0.9,41.2c0.1,12.9-0.3,26.3,0.4,40.3c0.5,8.7,1.7,18,2.4,28.2
			c0.1,1.1,0.8,5.4,0.9,7.1c0.1,1.7,0.3,1.3-0.4,1.8c-2.7,1.6-2.5-5.7-2.7-7.8c-0.3-3.8-0.6-7.2-0.9-9.8c-0.7-6.1-1-14-1.3-18.6
			c-0.8-13.5-0.7-24.1-0.7-38.3c0-13.5-0.9-27.3,0.2-40.1C131.7,70,133.1,57.3,134.6,45z"/>
		<path fill-rule="evenodd" clip-rule="evenodd" d="M446.7,54.8c1.7-0.6,4.5-0.8,5.1,0.9c3.5-0.3,5,1.3,7.1,2.4
			c2.2-1.5,4.7-3.6,8.4-2.9c0.4,0.6,1.1,1,0.9,2.2c-3.3-0.2-6.9,0.6-7.8,3.5c-2.6-0.8-4.6-3.3-8-2.7c-1.3,0.6-0.3,3.5-2,3.8
			c-2.1-0.5-1.1-3.6-0.4-5.1c-1.8-0.8-2.3,1.3-4,1.3c-1.2-5.6-6.8-0.9-6.2,4.2c0.2,1.4,2.8,5.4,0.7,6.7c-1.8-0.8-2-3.3-2.9-5.1
			c-1.7,0.2-2.5,1.2-3.3,2.2c0,1.1,0.7,1.7,0,2.7c-2.2-0.1-2.3-2.8-1.8-4.2c0.6-1.7,3.6-3.1,5.3-3.3c0.7-3.3,2.7-9.5,7.1-8.4
			C445.8,53.2,446.1,53.8,446.7,54.8z"/>
		<path fill-rule="evenodd" clip-rule="evenodd" d="M34.4,58.5c0.7,3.3,0.4,6.8,1.1,10c0.5,2.2,2.2,4.3,1.1,6.2
			c-2.9,0.2-2-3.5-2.9-5.3c-1.8,0.4-3.2-0.4-4.4,0.2c-1.7,0.8-1.6,3.4-3.1,4.4c-0.9,0.1-1.6,0-1.8-0.7c0.1-1.3,1.3-2.2,2-3.3
			c2-3.2,4.5-7.4,5.8-11.3c0.1-0.3,0.4-0.3,0.4-0.7C33.4,58,34,58.1,34.4,58.5z M30.8,67.2c0.7,0,1.5,0,2.2,0c0-1.2,0.1-2.6-0.7-3.1
			C31.9,65.2,30.9,65.7,30.8,67.2z"/>
		<path fill-rule="evenodd" clip-rule="evenodd" d="M42.1,64.3c1.2-0.9,2.7-0.1,4,0c3.9,0.3,8.5-0.1,12.9-0.2
			c16.6-0.5,36.5-0.1,53.2-0.9c0.9,0,5.4-1.3,4.9,1.6c-0.3,1.6-3.5,0.7-4.7,0.7c-6.1-0.3-12.3,0.1-18.8,0.2
			C81.2,65.9,70,66,59.4,66.3c-4.3,0.1-8.8,0.5-12.6,0.2C45.2,66.4,42.7,66.4,42.1,64.3z"/>
		<path fill-rule="evenodd" clip-rule="evenodd" d="M467.9,66.9c-1,0.8-1.8-0.4-2.9-0.2c-2.4,0.3-3.8,3.7-4.9,5.5
			c-1-0.1-1.5-1-1.6-1.8c-0.1-1.4,4-6.5,6.4-6.4C466.3,64.1,467.6,65.2,467.9,66.9z"/>
		<path fill-rule="evenodd" clip-rule="evenodd" d="M430.9,66.3c1.2,0.9,1,3.4-0.2,4.2c-1.1,0.2-1-0.8-1.3-1.3c-2.2,1.3-4.4,3-3.8,6
			c0.4,1.9,3.1,2.7,2.9,4.9c-1.9,0-4.6-2.9-4.9-5.3C423.1,70.4,427,66.7,430.9,66.3z"/>
		<path fill-rule="evenodd" clip-rule="evenodd" d="M459.3,74.3c0.1,0.8-0.1,1.2-0.4,1.6c0.3,0.7,1.4,0.6,1.8,1.3
			c3.1-2.2,6.4,2.7,3.5,4.4c-0.9-0.3-1-1.2-1.1-2.2c-2.1-0.2-2.7,1.2-4.2,1.6c-0.9-0.6-0.6-1.7-0.2-2.7c-0.9-0.9-2.2-1.4-2.2-3.1
			c-2-1.6-6.9-1.8-8.4,0.4c-0.3,2.4,1.3,2.9,1.1,5.1c-0.3,0.7-1,1-1.6,1.6c1.5,0.6,4.1,1.9,2.7,4c-1.6-1.4-4.4-1.6-6.2-0.2
			c-0.4,0.9,0.2,1.5-0.7,2c-3.1-0.9-1-5.5,1.8-5.1c0-1.8,0.8-2.9,1.8-3.8c-2.8-5.1,1.1-8,6.4-7.3C455.6,72.1,457.4,74.1,459.3,74.3z
			"/>
		<path fill-rule="evenodd" clip-rule="evenodd" d="M383.3,82.7c-2.6-0.9,0.2-4.8-1.6-6.4c-2,0.6-2.3,2.9-4,3.8
			c-0.7,0.1-0.9-0.3-1.3-0.4c-1.9,2.1-0.2,7.9-2.7,9.5c-2.6-0.6-5.5-1-7.3-2.4c-0.7,2.2-0.5,5.4-2.4,6.4c-1.3,0.2-1.9-0.3-2.7-0.7
			c-0.8,3.3,0.9,5.9,0.9,9.5c-1.4,1.8-4.3,0.3-5.8-0.4c-0.1,1.5,0.8,2.7,0.2,4c-0.8,0.6-2.4,0.4-3.3,0.9c0.4,3.2,1.4,5.7,3.1,7.5
			c1.2,1.3,3.6,1.9,3.8,4.2c-0.4,0.3-1.1,1.1-1.8,0.4c0.4,1.1,0.8,1.8,0.4,3.1c-1,0.9-2.8,1-4.9,0.9c0.1,1.3,1.4,3.3,2.7,4.2
			c0.3-0.5,0.5-1.1,1.3-1.1c1.7,1.3,2.3,3.1,4,4.7c1,0.9,2.5,1.3,3.8,2.4c-0.9,1.6-3.3-0.2-4.2-0.7c-0.3,0.3-0.3,0.8-0.7,1.1
			c-3.2,0.2-5.2,1.6-6.9,3.3c1.5,0,3.1,0.1,4.2-0.2c1,0.7,1.8,1.6,3.1,2c0.3,2.7,3.3,1.6,4.7,2.4c0.1,1.9-1.4,2.2-2,3.3
			c1.9-0.5,4.4-1.2,5.5,0.4c0,1.3,0.4,1.3,0.4,2.9c-0.3,0.1-0.5,0.3-0.7,0.7c-1.8,0.2-2.4-0.8-2.7-2.2c-1.8-0.2-3.6,2.5-5.3,2.4
			c-1.2,0-2.4-1.1-2.4-2.2c-0.1-1.8,2.1-2.3,2.9-3.8c-0.3-0.9-1-1.4-1.1-2.4c-2.2,0.6-3.9,0.5-4.7-1.3c-2.4,0.8-5.1,0.4-5.3-1.3
			c-0.2-1.8,4.6-4.9,6.2-5.5c1.1-0.4,2.7-0.6,3.3-0.2c-1-2.1-4.2-2.3-5.8-4c-1.7-1.8-2.3-4.4-4-6.4c-0.6-0.8-1.7-1.2-1.8-2.4
			c1-1,1.5-0.6,2.4,0.2c1,0.9,3.7,2.9,5.3,1.1c-0.7-2-2.2-3.1-3.1-4.9c-0.1-0.8,0.7-0.7,0.9-1.1c-1-2.6-3.4-4.9-3.1-8
			c-0.4-0.9-1-2-0.4-3.1c1.4-0.7,2.2,0.6,3.3,0.9c0.8-1.2-0.7-4.5,0.2-6.4c3.2-0.3,2.2,3.6,5.5,3.1c-0.4-3.6-1-9.2-0.9-13.1
			c2.5-0.3,2.3,2.2,3.3,3.3c1.8-0.8,2-4.1,2-6.7c0-1-0.6-2.8,0.7-3.1c2.1-0.5,1.5,2.4,2.4,3.8c1.1,1.7,2.4,1.6,5.1,1.3
			c1.4-3.3,1.4-7.9,3.1-10.9c1,0,1.4,0.7,2,1.1c1.6-0.7,2.3-2.3,2.9-4c0.2,0,0.4,0,0.7,0C383.7,74.2,385.5,79,383.3,82.7z"/>
		<path fill-rule="evenodd" clip-rule="evenodd" d="M117.9,74.7c-0.2,1.9-2.1,1.5-3.5,1.6c-3.8,0.1-9.3-0.6-13.7-0.7
			c-8.9-0.1-19.5,0-30.4,0c-5.5,0-8.1,0.4-14.9,0.7c-1.7,0.1-4,0.2-7.1,0.2c-1.3,0-7.1,0.7-6.4-1.8c0.5-1.7,6-0.5,8.2-0.4
			c3.9,0.2,5.6-0.3,8-0.4c18.1-1.1,36.9-0.7,56.1-0.2C115.5,73.6,117.2,73.4,117.9,74.7z"/>
		<path fill-rule="evenodd" clip-rule="evenodd" d="M396.1,80c0.2,1.4-0.9,1.5-0.7,2.9c2,0.4,4-1.2,6.2-1.3c1.9,0.8,0.3,3.8,1.1,4.7
			c-0.1,0.7-0.7,1-1.1,1.3c-1.3-0.4-1.8-1.6-2-3.1c-2,1.3-5.9,2.6-6.2-1.1c-2.8,0.6-4.6,2.2-7.1,3.1c-0.9-0.5-1.7-0.9-1.6-2.4
			c3.5-1.4,7.2-2.6,9.5-5.1C395.1,79.1,395.8,79.4,396.1,80z"/>
		<path fill-rule="evenodd" clip-rule="evenodd" d="M428,83.6c-0.7,0.4-1.4-0.2-2.2-0.2c-2.7,0.1-5.9,2.3-5.8,4
			c0.1,1.3,1.2,0.9,1.6,2.2c0.2,1.3-0.7,1.5-1.1,2.2c0.5,0.5,1.4,0.5,1.1,1.8c-2,1.1-4.5-1.8-3.1-4.2c-1.4-3.4,0.2-5.7,3.5-7.1
			c1-0.4,2.5-1.1,3.1-1.1C426.4,81.1,429,81.7,428,83.6z"/>
		<path fill-rule="evenodd" clip-rule="evenodd" d="M118.1,88c-0.7,1-2,0.4-2.9,0.4c-8.1,0.2-17.3,0.8-25.7,0.9
			c-5.4,0.1-11-0.5-16.6-0.4c-12.8,0.1-27.2,0-41.2,0c-1.4,0-3,0-4.4,0c-1.1,0-2.7,0.4-3.3-0.9c0.6-2.3,3.4-1.6,4.9-1.6
			c22.5,0.8,43.9,0.3,64.5,0.4c3.6,0,7.4,0.1,11.1-0.2c4-0.3,8.1-0.1,11.5-0.9C117.3,85.5,118.5,86.1,118.1,88z"/>
		<path fill-rule="evenodd" clip-rule="evenodd" d="M405,88c0,2.8-1.6,4-2.4,6c2.2,0.9,3.6-1,5.8-0.9c0.8-0.1,0.7-1.1,1.3-1.3
			c0.8-0.1,1,0.4,1.6,0.7c0,0.7,0,1.3,0,2c3,3.8-4,5.7-2.4,9.3c-0.5,1.7-2.1,2.3-2.9,3.8c-0.1,0.6,0.8,0.2,0.9,0.7
			c-0.1,0.8-1.1,0.6-1.3,1.3c-3.9-1.3-0.8-6,2-6.4c-3.5-3.7,3.9-5.4,1.6-8.6c-1.9,1.9-5.1,2.5-8.6,2.7c-0.5-0.7-1.2-1.1-1.6-2
			c1.4-2.6,3.4-4.6,4.7-7.3C404,87.8,404.7,87.7,405,88z"/>
		<path fill-rule="evenodd" clip-rule="evenodd" d="M118.8,98.4c1.1,0.2,1.5,1.2,1.3,2.7c-1.7,0.7-3.7,0.4-5.5,0.4
			c-6.2,0.1-12.8-0.2-19.1-0.2c-8.1,0-15.1,0.7-23.1,0.7c-14.8,0-29.7,0.3-43.7,0c-1.4,0-4.8,0.2-4.7-1.6c0.1-1.7,5.4-0.8,7.1-0.7
			c3,0.2,5.5,0.4,8.2,0.4c11.9,0.1,25,0,39.2-0.7c10.3-0.5,18.4-0.7,29.5-0.7C112.1,98.9,116.1,99.2,118.8,98.4z"/>
		<path fill-rule="evenodd" clip-rule="evenodd" d="M413.9,106.6c-0.1,2.3-2.1,3.6-3.1,5.1c-1.1,1.6-2.2,3.1-3.5,4.4
			c0.2,0.7,1.1,0.7,1.1,1.6c-0.9,4.2-4.1,6-6.2,8.9c0.5,0.3,1,0.6,1.3,1.1c0,0.9-0.5,1.5-0.9,2c0.8,1.7,3.3,1.7,5.1,2.4
			c-0.1,1.3,0.5,1.5,0.4,3.1c-1.5,1-3.4,1.4-6,1.3c0.1,0.7,1.2,0.5,1.3,1.3c0.6,0.5,0,1.6-0.2,2c-2-0.4-3.1,0.3-3.8,1.8
			c-0.1,0.9,0.8,0.6,0.7,1.6c-0.8,2-4.9,0.7-7.3,1.1c-0.7-0.5-1.3-1-1.3-2.2c1.6-0.5,3.7,0.3,5.8,0c-1-2.7,1.4-3.5,2.4-4.9
			c-0.5-1.5-2.8-1.2-2.7-3.3c-1.9,0.4-4.2,1.9-6.2,0.9c0.8-1.8,3.2-1.7,4.9-2.4c2.1-0.9,3.9-2.3,4.9-4.2c-0.7-0.7-1,0.9-2,0.7
			c-0.7-0.1-1-0.7-1.3-1.1c0.5-1.7,2.3-2.1,3.5-3.1c1.8-1.5,3.1-3.6,4.4-5.5c-1.1-0.2-1.3,0.5-2.2,0.4c-0.6-0.5-0.9-1.3-1.3-2
			c3-1.8,5.3-4.3,7.3-7.1c-0.6-0.8-1.9-0.9-1.8-2.4C410.2,108.5,411.6,105.4,413.9,106.6z M398.3,133.4c1,0.3,2.4,1,3.8,0.9
			c1.1-0.1,2.6-0.2,3.1-0.9c-2,0.1-2.6-1.3-3.8-2C400.4,132.1,399.5,132.9,398.3,133.4z"/>
		<path fill-rule="evenodd" clip-rule="evenodd" d="M424.3,108.6c1,0.7,1.7,1.7,2,3.1c1.9-0.1,4,0.4,5.3,1.6
			c1.2,1.1,2.6,3.6,0.4,4.9c-0.7,0.2-0.4-0.6-1.1-0.4c0.8-3.3-3.4-4.2-6.4-3.1c-1-0.8-0.9-2.2-0.4-3.5c-2.3-0.9-4.3,1.6-6.2,1.1
			C417.8,109.6,421.1,108.7,424.3,108.6z"/>
		<path fill-rule="evenodd" clip-rule="evenodd" d="M80.7,110.2c0.7,1.6,0.2,3.6,0.2,5.5c0.1,1.8,0.8,4.1-0.4,5.5
			c-13,1.1-27.3,0.2-40.8,0.9c-4,0.2-7.9,0.5-11.7,0.2c-1-0.4-1.5-1.3-2.2-2c0.2-2.3-0.6-6.9,0.7-9.3c10.9,0.7,23.4-0.1,36.1-0.4
			c4.9-0.1,9.8-0.8,14.2-0.9C78,109.7,79.5,109.8,80.7,110.2z M27.9,113.9c-0.5,1.4-0.1,3.7-0.2,5.5c7.9,0.7,16.8,0.2,25.7,0.2
			c8.9,0,17.8-0.4,25.7-1.3c-0.1-2.4,0.1-4.7-0.4-6.2C62.3,113.8,43.7,113.1,27.9,113.9z"/>
		<path fill-rule="evenodd" clip-rule="evenodd" d="M440,117.3c0,1,0.6,1.5,0.4,2.7c2.1,0.9,4.2,2.3,3.5,4.9
			c-0.5,1.7-3.3,2.8-5.3,1.8c-0.1-1.3,2.7-1.6,3.1-3.1c-0.7-1.2-3.5-0.3-4.2-1.6c-0.4-1.6,0.7-2.6,0.4-3.3c-0.8-0.7-2.1,0.1-3.1,0
			C432.5,115.1,438.8,114.9,440,117.3z"/>
		<path fill-rule="evenodd" clip-rule="evenodd" d="M430.7,124.8c1.9,0.6,4.4,0.7,5.8,1.8c0,2.1-4.3,1.4-5.5,0.9
			C430.4,126.9,430.3,125.6,430.7,124.8z"/>
		<path fill-rule="evenodd" clip-rule="evenodd" d="M429.4,126.8c-0.2,1.3-1.7,1.3-2.7,1.3c-3.5,0.3-8.6-0.7-12.6-0.9
			c-1.6-0.1-3.2,0.4-4.2-0.9c-0.1-0.4,0.2-0.4,0.2-0.7c0.2,0,0.2-0.2,0.4-0.2c4.1-0.2,8.1,0.3,12,0.4
			C424.8,126,427.4,125.7,429.4,126.8z"/>
		<path fill-rule="evenodd" clip-rule="evenodd" d="M101.1,129c1.8-0.1,5.8-0.2,10.4-0.2c3.2,0,8.8-0.6,8.6,1.3
			c-0.1,2.2-2.9,1.4-4.9,1.3c-13.9-0.6-28.9,0.9-42.8,1.3c-12.7,0.4-23.7,0.4-36.8,1.1c-2.5,0.1-2.9,0.3-5.8,0.2c-0.7,0-4.5,0.1-4-2
			c0.5-1.7,4.8-0.4,6-0.4c4.9,0,11.6-0.5,17.5-0.7c11.4-0.3,22.4-0.2,33.9-1.1c2.9-0.2,5.8-0.4,8.6-0.4
			C95.1,129.4,98.1,129.2,101.1,129z"/>
		<path fill-rule="evenodd" clip-rule="evenodd" d="M26.8,142.3c0.6-1.1,2.1-0.7,2.9-0.7c13-0.1,30.7,0,45.2-0.7
			c7.1-0.3,14.2-0.1,21.1-0.7c3.3-0.3,6.5-0.6,9.8-0.7c3.6-0.1,8-0.8,11.1-0.4c1.1,0.1,2.8,0.4,2,2.2c-0.5,1.1-1.6,0.7-3.5,0.7
			c-8.6-0.1-16.4,1.1-25.5,1.1c-14.5,0-29.3,0.7-43.7,0.7c-3.4,0-7.2,0-10.6,0.2c-1.4,0.1-3.7,0.4-5.3,0.4
			C28.7,144.5,26.7,144.9,26.8,142.3z"/>
		<path fill-rule="evenodd" clip-rule="evenodd" d="M392.6,145.4c0,0.3,0,0.6,0.2,0.7c-0.8,1.6-2.8,0-3.8-0.4
			c-1.3,1.5,1.3,2.6,1.1,4.4c-1.1,1.3-1.9-0.5-3.3-1.3c-2.3-1.3-5.9-1.1-5.5-4c1.9-0.5,3.1,1.5,4.9,1.8c0.6-0.9-0.2-3.3,0.7-4
			C389.7,142.5,390.3,144.8,392.6,145.4z"/>
		<path fill-rule="evenodd" clip-rule="evenodd" d="M67.2,153.8c-0.8,1.8-2.9,0.8-4.4,0.7c-8.3-0.7-17.6,0.3-26.2,0.9
			c-2.9,0.2-5.8,0.5-8.4,0c-0.2-0.7-0.7-1.3-0.7-2.2c1.6-0.7,3.5-0.2,5.3-0.2c9.4,0,16.6-1.1,26.6-1.1
			C62.2,151.8,66.5,150.9,67.2,153.8z"/>
		<path fill-rule="evenodd" clip-rule="evenodd" d="M470.8,42.6c0.9,10.9,1.2,22.2,0,32.4c-0.6,5.5-0.9,11-0.2,17.7
			c0.1,0.5-0.1,1,0,1.6c0,0.2,0.4,0.6,0.4,0.9c0.1,1.8-0.2,3.5,0,5.3c0.7,8.9,0.8,17.6,0.7,26.8c-0.1,13.7-0.6,28.5-0.4,39.9
			c0.1,7.4,0.3,14.1,0,20.8c-0.1,3.5-0.1,7.1,0,10.6c0.1,3.4,1.1,6.8,0.7,10.4c-2,1.8-4.7,0.9-7.1,0.7c-19.2-1.5-39.8-0.5-59.9,0.2
			c-10.6,0.4-21.2-0.7-31.9-0.4c-5.1,0.1-11-0.3-16.6,0c-4.3,0.2-8.4-0.1-12.4,0c-1,0-2.3,0.3-3.3-0.2c-0.2-11.1,0.2-27.1,0.4-40.1
			c0.3-14,0.5-28.3,1.3-41.7c0.9-13.9,1.8-28.5,2.4-43c0.3-6.9-0.2-14.3-0.2-21.5c0-3.9,0.1-7.7,0-11.5c-0.1-3.3-0.8-6.6,0.2-9.5
			c4.4-0.8,8.8-0.9,13.3-1.3c4.6-0.4,9.7-1,14.2-1.1c16.7-0.3,33.6,1.3,50.1,1.3c12.3,0,24.3,1,36.6,1.3c2.1,0,4.2-0.1,6.2,0
			C467.2,42.2,469.1,42,470.8,42.6z M462.8,44.8c-12.8-0.6-26-1.2-39.2-1.8c-9-0.4-17-0.2-24.6-0.4c-8-0.2-16.8-1.2-24.8-0.9
			c-4.5,0.2-9.5,0.9-14.2,1.3c-4.4,0.4-8.9,0.4-13.1,1.6c0.1,13.9,0.2,27.1,0,40.1c-0.3,16-1.8,31.2-2.4,46.6
			c-0.7,15.2-0.8,29.5-1.1,43c4-0.5,6.6-4.5,10.6-4.4c1.6,0,2.9,1.4,4.9,0.7c3.5,1.8,5.2,5.4,9.3,6.7c1.6-7.4,5.2-15.6,5.8-24.4
			c0.6-8.5-0.8-16.5-3.1-22.8c-0.5-1.5-1.2-2.7-1.6-4.2c-1.9-0.5-5,0.1-5.5-1.8c0.7-1,3.4-0.2,4-0.2c-0.6-3.6-5.4-6.6-6-10
			c-0.3-1.4,0.1-3.1,0.2-4.7c0.1-1.3-0.2-2.9,0.7-3.8c3.6,0.9,1,5.6,1.6,8.6c0.3,1.8,1.8,3,2.7,4c0.3-1.5,1.1-3.1,2-4.4
			c0.8-1.2,1.6-3.3,3.5-2.7c-0.4,2.4-2,4-2.7,6.2c-0.4,1.3-0.2,2.8-0.9,4.2c1.6,1.3,1.8,3.8,3.8,4.7c0.9-0.3,0.6-1.4,0.7-2
			c0.5-2.3,0.5-5.4,1.6-7.1c1-1.5,2.5-1.4,3.8-2.7c0.5-3.3,1.9-6.8,4.4-7.3c0.8,1.8-0.6,3.2-1.1,4.7c-0.3,1-0.1,2.2-0.7,3.3
			c-0.8,1.6-3.1,1.7-4,2.9c-0.5,0.7-0.6,2.2-0.9,3.8c-0.6,3.3-0.7,5.4,0.9,7.5c0.9-1.7,1.9-3.3,3.1-5.1c1.1-1.6,2.2-3.7,3.8-4.7
			c0.8-0.5,1.8-0.3,2.7-0.9c0.9-0.6,3.5-3.9,3.5-4.9c0.1-0.9-0.8-2-0.9-2.9c-0.1-0.6-0.1-1.4,0-2c0.3-3.2,1.8-7.1,4-8.2
			c0.3,3.4-2.1,6-1.8,10.2c2.8-2.3,5.3-5,9.1-6.4c1,3.8-3.5,4.2-5.8,6.6c-1.2,1.3-1.7,3.4-2.7,4.9c-0.8,1.3-2.7,3.7-3.8,4.4
			c-1.5,1.1-3.5,1.2-4.4,2.7c-0.9,1.5-0.9,3.7-1.3,5.5c-0.4,1.8-0.9,3.6-1.3,5.5c1.1,0,1.8-1.6,3.1-2.2c1-0.5,3.1-1.5,3.8,0.2
			c-0.5,1.6-2.4,1.6-3.5,2.4c-0.7,0.5-1.4,1.3-2,2c-0.7,0.8-1.3,1.6-2,2.2c-0.3,7.2-0.3,14.8-0.9,21.7c-0.5,6.4-2.1,13.7,1.8,18.2
			c3.3-1.4,7-2.7,10.9-4.4c3.4-1.6,6.9-3.7,10.4-4.9c3.3-1.1,5.5-0.6,8.9,0c1.6,0.3,3.3,0.6,4.9,0.9c3.2,0.5,6.5,1.6,9.3,2
			c2.1,0.3,3.3-0.1,5.1-0.4c5.3-1.1,9.1-2.2,14-3.8c1.7-0.5,4.4-1.9,5.3-1.8c0.9,0.1,1.5,1.5,2.4,2.2c0.6,0.5,1.7,1,2.7,1.6
			c2.6,1.6,5.3,2.4,8,3.5c1.9,0.8,3.6,1.7,5.5,2c-0.5-26.8,1.8-54.4-0.4-79.1c-5.9-1.6-11.7-0.8-17.3-1.3c-2.9-0.3-5.5-1.7-8.4-2.2
			c-4.4-0.8-8.8,0.4-13.5-0.2c-0.5,0.8,0,1.7-1.3,2.2c-1.1,0.4-2,0.2-2.4-1.1c0.2-0.7,0.7-1.2,1.8-1.1c-0.3-0.9-0.1-1.4,0.7-1.8
			c4.6,0.1,8.7-0.6,13.3-0.2c3.7,0.3,7.5,2.2,11.3,2.4c5.1,0.4,10.5-0.2,15.7,0.9c-0.9-7.9,0.3-16.5,0.7-23.3
			c0.4-8.6,0.2-17.8,0-25.3C467.1,44.5,464.9,44.9,462.8,44.8z M378.8,131.7c1.1,0.3,1.4-2.3,0.9-2.2
			C379.5,130.2,379.2,131.1,378.8,131.7z M375.1,134.1c0.4-0.4-0.1-0.7-0.4-0.9C374.6,133.7,374.7,134.1,375.1,134.1z M377.7,142.3
			c0.6,0.3,0.6-1,0-0.7C377.7,141.9,377.7,142.1,377.7,142.3z M377.1,152.1c-0.1-0.5-0.2-1-0.7-1.1
			C376.4,151.5,376.2,152.3,377.1,152.1z M376.8,164.7c-0.5-1.4-0.9-2.8-1.8-3.8c-0.3,0.3-0.2,1-0.2,1.6
			C376,162.8,376.2,164,376.8,164.7z M373.1,168.5c0.3,0,0.6,0,0.9,0c0-0.7-0.2-1.1-0.7-1.3C373.5,167.8,372.9,167.8,373.1,168.5z
			 M376.8,168.2c0.3-0.7-0.6-1.3-0.9-0.7C376.4,167.7,376.1,168.4,376.8,168.2z M464.8,177.3c-1-0.4-2.2-1.6-3.5-2.2
			c-3.3-1.5-5.3-1.8-8.2-3.8c-1.4-0.9-3.1-2.8-4.2-2.2c-3.7,1.9-10.4,3.7-15.5,5.1c-2.1,0.6-2.9,0.5-4.4,0.2c-1.3-0.2-2.7,0-4-0.2
			c-2.2-0.4-4.2-1.3-6.4-1.6c-3-0.4-6.1-0.7-9.5-1.3c-0.7-0.2-0.7-1.1-1.6-1.1c-8.7,2.6-15.6,7-23.7,10.2c0.9,1.3,1.3,3,2.7,3.8
			c2.2-0.9,3.1-3.1,4.4-4.9c1.1,0.3,2.1,0.7,2.2,2c1.4-0.7,2.1-2,3.5-2.7c2.3,0.1,1.7,3,3.3,3.3c1.4,0.2,2.2-1.7,3.3-2.7
			c1.4-1.1,2.7-1.5,3.8-2.2c0.2,1.1,1.3,1.4,1.6,2.4c0.2,0.8-0.3,1.9-0.4,2.9c0.7-0.1,0.7-0.9,1.8-0.7c1.7,0.8,0.7,2.6,0.7,4.4
			c1-0.4,1.7-0.1,2.7,0.2c0.3,0.8,0.6,1.6,0.7,2.7c2.9-1.4,4.6-4,8.2-4.7c2.3,1.3,0.1,4,0,6.2c3.1-1.5,6.8-0.1,4.4,3.3
			c0.8,0.4,2.2,0.1,2.2,1.3c-0.5,1.2-0.3,2.1-0.9,2.9c2.2-1,4.1-2.5,6.4-3.5c2.3-1,4.8-1.7,7.5-2.4c4.5,1.9-2.2,4.9-1.8,8.2
			c1.3-0.4,2.1-0.3,3.5-0.2c1.2,0.9,2,2.3,1.6,3.8c1.1,0.1,2.2,0.2,2.9,0.7c0.6,0.8-0.6,1.5,0.2,1.6c7.1,0.2,15.3,0.5,21.7,0.7
			c0.4-1.5-1.3-0.9-1.1-2.2c0.1-10.5,0.5-18.9,0.2-26.2C467.6,177.6,466.4,177.9,464.8,177.3z M370.4,178c0.8-0.2,0.6,0.6,1.3,0.4
			c0-0.7-0.6-0.8-0.4-1.8c0.3-0.3,1-0.2,1.6-0.2c-0.2-0.8-0.5-1.5-0.9-2.2c0.1-0.6,1-0.5,1.1-1.1c-0.4-0.2-0.3-1-1.1-0.9
			C371.6,174.3,370.8,176,370.4,178z M359.8,173.6c-1.6,0.2-2.6-0.6-3.8-0.7c-5.2-0.5-8.2,3.7-12.6,4.4c-0.4,8.7-0.3,20-0.2,29
			c16.8,0.9,33.7,0.2,49.9,0.9c17.9,0.8,33.3-1,51-1.1c-1.1-0.5-1.8-0.8-2-2c-0.2-1,1.3-1.8,0.4-2.2c-1.6,0.1-2,1.3-3.5,0.9
			c-3.3-0.8-0.3-5.5,0.4-7.5c-6.4,1-9.4,5.4-14,8.2c-3.8-1.2-0.6-5.1,0.9-6.7c-3.3,0.5-3-2.4-2-4.2c-2.9,1.9-6.3-0.7-4.7-4
			c-2,0.2-4.4,3.8-6.2,4c-1.6,0.2-3.4-0.9-2.7-3.3c-2.1,0.8-3.3-0.9-3.1-3.1c-2.8-0.4-2.8-3-2-5.5c-1.9,1.8-3.5,5-6.9,3.5
			c-0.8-0.4-1.4-1.3-2-2.2c-1.8,0.9-2.5,2.8-4.4,3.5c-0.6-0.3-1.1-0.7-1.8-0.9c-1.6,1.2-2.3,3-4.7,2.4c-1.9-0.5-2.3-3.7-3.8-4.7
			c-0.9,1.2,1.2,3.4,0.9,4.7c-2.3,0.5-3-2.4-3.3-4.7c-2.2,1.3-1.5,5.6-3.8,6.9c-1.8-0.6-2.6-2.1-3.5-3.5c-1.2,0.3-1.2-0.6-2-0.7
			c-2,0.8-4.2,3.3-6.2,0.9c-2.1,4.7-5.4-0.9-6.4-3.3c0.1,1.9-0.4,3.7-0.4,5.3c-0.1,1.2,0.5,2.8-0.7,3.5c-2,0.3-2.1-1.3-3.1-2
			c-0.5,1.8-1.8,3.7-4.2,2.9c0,1,0.2,2.1-0.7,2.2c-1.9,0.9-4.7-3-5.1-5.3c-0.1-0.8-0.6-1.9,0.4-2.2c2,0.1,1.4,2.9,2.7,3.8
			c0.2-1.1-0.4-3,0.4-3.3c2.2-0.4,1.9,1.6,3.1,2.2c2-0.8,2.1-2.6,2.9-4.2c1-0.2,1.3,0.4,2,0.4c0.6-3.8,1.3-7.6,2.2-11.1
			c2.2-0.2,1.8,1.6,2,3.3c0.3,2.5,1.3,4.9,2,6.4c1.8-0.3,1.2-3.1,2.7-3.3c1.9-0.3,1.5,2,2.4,2.9c1.4-0.5,0.4-3.1,0.9-4.9
			C364.2,178,362.2,175.5,359.8,173.6z M379.9,179.6c-0.6-0.4-1-0.9-1.6-1.3C378.3,179.1,379.2,180.2,379.9,179.6z M369.7,181.3
			c1.3-0.4,1.1,1.8,2,1.1c-0.9-0.6-1-2-2-2.4C369.7,180.4,369.7,180.9,369.7,181.3z M374.6,185.5c0.8,0.2,0.4-0.8,0.9-0.9
			c-0.4-0.8-0.7-1.5-1.6-1.8C374.2,183.8,374.4,184.7,374.6,185.5z"/>
	</g>
</g>
</svg>
