<?xml version="1.0" encoding="utf-8"?>
<!-- Generator: Adobe Illustrator 15.1.0, SVG Export Plug-In  -->
<!DOCTYPE svg PUBLIC "-//W3C//DTD SVG 1.1//EN" "http://www.w3.org/Graphics/SVG/1.1/DTD/svg11.dtd" [
	<!ENTITY ns_flows "http://ns.adobe.com/Flows/1.0/">
]>
<svg version="1.1"
	 xmlns="http://www.w3.org/2000/svg" xmlns:xlink="http://www.w3.org/1999/xlink" xmlns:a="http://ns.adobe.com/AdobeSVGViewerExtensions/3.0/"
	 x="0px" y="0px" width="490px" height="205px" viewBox="-45.7 -14 490 205" enable-background="new -45.7 -14 490 205"
	 xml:space="preserve">
<defs>
</defs>
<g fill="#FFFFFF">
	<g>
		<path fill-rule="evenodd" clip-rule="evenodd" d="M95.7,66.4c25.4,2,49.6,6.9,74.3,11.3c24.7,4.3,49.3,9.6,74.3,14.3
			c1.2-2.3-1-8,1.9-8.6c3.3,0.4,5,3.9,7.9,6c3.4,2.4,8,3.7,10.5,7.1c6.4-11.8,12.3-25.2,27.4-26.6c13.2-1.3,21.3,8.5,26.3,17.6
			c2.5,4.5,5.7,9.2,5.3,16.1c-0.8,12.1-13.8,24.5-22.5,28.1c-15.1,6.3-36.4-0.9-38.3-16.5c-0.4-3.6-0.2-8,0.7-12.8
			c-4.4-0.1-9-0.8-13.1,0c-2.2,0.4-4.1,2.7-6,1.1c-2.4-0.8-0.4-4.2-0.8-6.4c-47.7-10.8-98.6-20.1-148.2-27.8
			c-5.8,16.3-22.6,22.4-39,22.1C24.7,91.1,27.1,42.4,48,31.1c3.2-1.7,9.7-4.2,13.9-1.9c3.8-5.1,15.6-1.9,20.3,1.5
			C91.6,37.7,99.6,53,95.7,66.4z M46.9,37.5C38,45.9,31.4,71.1,42,82.2c10.2,10.6,36.4,3.4,43.5-5.3c14.3-17.2,3-47.8-19.9-45.8
			C57.8,31.6,51.7,33,46.9,37.5z M267.5,105.8c-1,10.1,1.3,18.2,7.9,21.4c18.5,8.9,38.2-5.8,42.4-21c2.3-8.3-0.4-10.7-3.8-16.9
			c-2.9-5.5-4.6-8.1-9-11.3c-3.8-2.7-7.3-4.1-12.4-3.4C280.8,76.3,268.9,91.6,267.5,105.8z"/>
		<path fill-rule="evenodd" clip-rule="evenodd" d="M150.1,44.3c-0.8,3.2-1.9,6.1-2.6,9.4c3.6-1.3,5.5-4.3,10.1-4.5
			c2.5,3.9-3,5.2-5.3,6.8c0.6,3.6,4.7,3.8,4.5,8.3c-4.3,1.2-5.6-3.6-7.9-5.6c-2.8,0.6-3.5,3.3-5.6,4.5c-1.4,0.4-1.1-0.9-2.3-0.8
			c-0.7-4.5,3.1-9.8,4.5-15c0.6-2.2,0.1-4,1.5-5.3C148.8,42,149.2,43.4,150.1,44.3z"/>
		<path fill-rule="evenodd" clip-rule="evenodd" d="M68.3,47.6c-0.7,5.7,0.1,13,1.5,18.4c0.7,2.6,3.3,5.4,1.1,7.5
			c-4.2,0.1-4.1-4.1-5.3-7.1c-8.3-1.2-8.8,5.2-12,9c-2-0.2-3.7-0.9-4.1-2.6c5.9-8.1,11.4-16.7,14.6-27.4
			C66.5,45.1,67.4,46.4,68.3,47.6z M61.9,62.3c0.9,0,1.8,0,2.6,0c0-1.6,0.1-3.4-0.8-4.1C63.2,59.6,62.3,60.6,61.9,62.3z"/>
		<path fill-rule="evenodd" clip-rule="evenodd" d="M216.8,67.1c2,1.2,6.7-0.2,6.4,3.4c-1,2-5.1,1.7-7.5,1.1
			c-1.3,2.2-1.1,5.9-3.4,7.1c-4.2-1.5-1.5-4.5-1.1-7.5c-1.2-0.8-3.3-0.7-4.1-1.9c-0.2-1.8-0.4-2.4,0.4-3.8c2.2-0.4,2.9,0.9,4.9,0.8
			c2.4-3.5,1.4-10.3,5.3-12.4C222.5,56.8,216.1,61.8,216.8,67.1z"/>
		<path fill-rule="evenodd" clip-rule="evenodd" d="M163.9,63.4c0.9,1.2,3.5,0.8,4.9,1.5c0.2,1.4-0.8,1.4-0.8,2.6
			c-1.4,0.3-3,0.5-4.9,0.4c-7.3-3.4-1.3-14.5,4.5-13.1C173.2,56,169.4,63.6,163.9,63.4z"/>
		<path fill-rule="evenodd" clip-rule="evenodd" d="M175.6,56.6c0.3,0,0.5,0,0.8,0c1.5,0.6,2.8,1.4,2.6,3.8
			c7.3-6.8,11.8,6.7,6.4,10.9c-4.1-0.6-1.7-4.3-1.9-7.9c-4,0.5-4.9,4.1-6.4,7.1c-1.5,0.2-1.1,0.2-2.6,0
			C172,66.8,175.1,61.1,175.6,56.6z"/>
		<path fill-rule="evenodd" clip-rule="evenodd" d="M195.4,63c7.8-5.2,12.6,9.9,5.6,13.1c-4.3-1.8,0-4.7-0.8-9
			c-3.7-1.6-5.4,2.4-6.8,5.3c-1,0.9-2.5,0-3.4-0.4C190.3,67.6,191.3,57.6,195.4,63z"/>
		<path fill-rule="evenodd" clip-rule="evenodd" d="M300.5,100.9c5.6,2.1,7.3,10,3,14.3c-4.2,4.4-14,3.5-16.9-1.5
			c0.9-4.4,0.8-10,1.5-14.6c-2.3,0.3-2,3.3-4.1,3.8C272.4,95.4,307.8,83.9,300.5,100.9z M291.1,96.8c0.6,1.4,0.9,3.1,0.8,5.3
			c3.3-0.4,5.1-2.4,5.6-5.6C295.9,94.7,292.6,96.1,291.1,96.8z M291.5,107.3c0,2.3-0.4,3.4-0.4,6.4c5.3,2.2,12.2-1.6,10.1-7.9
			C297.5,103.3,295.6,107.8,291.5,107.3z"/>
	</g>
</g>
</svg>
