<?xml version="1.0" encoding="utf-8"?>
<!-- Generator: Adobe Illustrator 15.1.0, SVG Export Plug-In  -->
<!DOCTYPE svg PUBLIC "-//W3C//DTD SVG 1.1//EN" "http://www.w3.org/Graphics/SVG/1.1/DTD/svg11.dtd" [
	<!ENTITY ns_flows "http://ns.adobe.com/Flows/1.0/">
]>
<svg version="1.1"
	 xmlns="http://www.w3.org/2000/svg" xmlns:xlink="http://www.w3.org/1999/xlink" xmlns:a="http://ns.adobe.com/AdobeSVGViewerExtensions/3.0/"
	 x="0px" y="0px" width="524px" height="400px" viewBox="-34.6 -6 524 400" enable-background="new -34.6 -6 524 400"
	 xml:space="preserve">
<defs>
</defs>
<g fill="#FFFFFF">
	<g>
		<path fill-rule="evenodd" clip-rule="evenodd" d="M232.4,31.9c2.5-0.3,4.1,0,5.4,1.3c4.7-3,9.4-6,13.7-9.3
			c-0.1-2.2,0.9-3.2,1.8-4.4c9.7-2.7,8.7,10.8,1.3,10.1c-1.8-0.2-1.8-0.8-3.1-1.8c-4.4,2.5-8,5.8-12.5,8.3c-0.4,4-2,6.8-6,7.3
			c-4.1,7.6-7.8,15.7-10.6,24.6c9.2,1.5,14.2,7.2,17.6,14.5c3.4-1.3,6.7-2.8,9.9-4.4c3.2-1.6,6.4-3,9.6-4.7
			c-0.5-4.2,2.2-8.4,5.2-6.2c0.2,0.1,0.3,0.8,0.8,1c1.1,0.6,2.1,0.3,2.9,1c2.8,2.8-0.9,10.2-5.4,9.6c-1.8-0.2-1.7-1.2-3.1-2.1
			c-7.2,1.9-12.2,5.9-18.7,8.6c0.8,4.2,0.9,6.6,0.3,11.2c7.9,0.2,15.9,1.4,23.9,2.6c7.8,1.1,15.6,2.2,23.3,3.4
			c10.2,1.6,20.5,3.9,30.6,5.4c10.4,1.6,20.7,3.2,30.9,5.2c0.9-2.6-0.9-6,1.6-6.5c0.8-0.1,4.6,3.3,5.4,3.9c0.8,0.6,1.6,1.5,2.6,2.1
			c2.1,1.2,4.3,1.6,5.2,3.6c4.5-9.1,9.3-17.8,20.5-20.2c1.2-2.1,3-4.7,4.9-8c0.8-1.4,4.6-6.2,4.7-8.3c0-1.3-1.2-2.4-1.3-3.9
			c-0.1-3.4,4.5-9.1,9.1-6c0.9,0.6,1,2.2,1.6,3.4c0.5,1,1.6,1.7,1.3,3.9c-0.4,2.7-3.6,4.3-6.7,3.9c-4.1,4.5-6.7,10.4-10.4,15.3
			c4.6,0,7.7,2.3,10.4,4.7c2.8,2.4,4.6,5.6,6.7,9.1c7-2.8,15.2-4.5,22.3-7.3c0.9-0.1,1.5,0.1,2.1,0.3c0.2-3.4,3.1-4.6,4.7-7
			c1.5-2.3,2.5-5.2,3.9-7.8c0.6-1.2,1.3-2.5,2.1-3.6c0.7-1.1,1.5-2.6,2.9-2.9c-2-2.9-1.7-7,0.8-9.3c0.6-0.6,1.7-1.5,2.1-1.6
			c2.2-0.4,4.6,2.2,4.9,4.2c0.6,3.6-1.8,7.8-5.4,7.8c-3.5,4.2-6.1,9.1-8.6,14.3c0.7,0.5,1.4,1,2.1,1.6c3-1.2,6-2.8,9.1-4.2
			c3-1.3,6.4-2.1,8.8-4.2c0.7,0,1.5-0.1,1.8,0.3c1.2-3.1,3.4-5.9,7.3-4.9c1.2,1.4,1.6,3.6,2.6,5.2c-0.5,3.7-6.9,5.8-9.3,2.3
			c-3.7,0.7-7,2.4-10.1,3.9c-3.2,1.5-6.6,2.6-9.1,4.9c0.8,0.8,1.9,1.8,3.1,2.6c2.1,1.5,4.5,2.6,7.3,3.9c2.6,1.2,4.3,2.3,7,0.5
			c2.2,1.4,4.8,3,4.9,6c0.3,7.2-12.8,6.3-9.3-2.1c-3.9-2.7-8.9-4.4-12.7-7.3c-1.3,0.9-2.3,2-4.2,2.3c1.8,5.8,4.7,10.7,7.3,15.8
			c2.3,1.3,4.9,3.3,3.6,6.2c-0.9,2-2.9,3.7-4.9,3.6c-4.6-0.1-4.9-6.2-2.1-9.3c-2-5.5-5.2-9.8-6.5-16.1c-1.3-0.8-2.6-1.5-3.4-2.9
			c-1.6,0.6-3.5,1.1-5.4,1.6c-6.1,1.6-12.9,3.2-17.9,6c3.8,6.9,0.2,16.4-4.4,20.2c4.6,5.4,12.7,7.3,18.9,11.2
			c6-3.9,12.2,3.5,8.8,8.8c-3.2,5.1-13.5,2.1-10.9-6c-2.3-2.7-6-4.1-9.3-5.7c-3.4-1.7-6.8-3.2-9.3-5.7c-5,3.4-10.8,8.5-18.7,7.3
			c-2.5,3.4-4.1,7.3-5.7,11.2c-1.6,3.9-3.4,7.7-5.2,11.4c-3.6,7.5-7.5,14.8-11.2,22.3c-4.6,9.5-8,19.8-12.5,29.3
			c-1.8,3.8-3.3,7.7-4.7,11.9c-0.6,1.9-1,4.3-2.6,5.7c0.5,0.7,0.7,1.7,1.3,2.3c0.9,0.9,2.1,1.1,3.1,1.8c4.7,3.2,8.3,10.6,9.1,18.2
			c11.2,0.2,23.2-0.5,32.4,0.5c1-3,2-5.8,5.2-6c7.1-0.4,9.3,12,2.3,12.7c-3,0.3-5-1.3-6.7-3.6c-11.6-1.4-20.3-0.3-33.2-0.5
			c-1.4,3.4-2.7,6.7-4.9,9.3c-1.3,1.6-3.4,2.7-4.7,4.4c4.7,8,11.9,13.6,17.6,20.5c2.1-0.6,3.6-1.2,5.2-1c4.8,0.4,7,7.5,4.7,10.9
			c-0.3,0.4-2.9,2.4-3.9,2.6c-5.3,1.1-10.2-4.5-7.8-10.1c-5.3-7.8-12.8-13.3-18.2-21c-1.3,0.5-2.3,1.7-3.6,2.3
			c-5.7,2.7-14.2,1.6-18.9-1c-2.1,4.5-3.2,7.4-5.7,11.2c-0.8,1.1-2,1.9-2.3,3.1c-0.3,1.2,0.1,1.9,0.8,3.1c1.3,2.4,0.1,5-2.1,7
			c1.1,1.2,1,2.8,1.6,4.2c1.7,4.2,5.1,7.2,6.5,11.7c2.8-0.1,3.2,2.3,5.4,2.9c3,4.1,0.4,10.6-6.5,9.3c-4-1.2-4.8-8.7-1.3-11.2
			c-2.5-5.4-6.6-9.2-7.8-15.8c-1,0-2.3,0.7-3.1,0c-1.4,4.1-2.2,8.9-2.9,13.7c0.5,1.3,2.1,1.9,2.6,3.6c1.3,4.3-1.5,9-6.2,7.5
			c-4.7-1.4-5.5-9.7,0.5-11.4c0.3-3.3,0.9-6.6,1.6-9.6c0.4-1.9,1.8-4,0.5-6c-1.3,0.1-2.6,0.9-3.9,1.6c-3.6,1.9-7.8,4.3-11.9,6
			c0.9,2.2,1.9,3.2,1.3,5.7c-1.9,7.2-12.2,5.6-11.7-2.9c0.2-3.7,4.5-8.6,8.6-4.9c2.3-1.7,5.1-3.1,7.8-4.4c2.8-1.3,5.6-2.5,8.6-3.6
			c-0.5-4.5,3.7-9.2,8.6-7.5c2.4-5,6-8.8,7.8-14.5c-5.1-4.9-12.2-10.8-9.6-21.8c-13.6-3.7-26.6-8.2-39.4-13
			c-12.8-4.8-26.1-8.1-39.2-13c-3,1.8-5.2,4.5-9.3,5.2c0.5,8.5,3.9,15.5,4.2,23.3c5.2,1.9,3.9,10.2-1.3,10.6c-4.7,0.4-6.8-5-4.7-9.9
			c0.9-0.4,1.6-1,2.9-1c-1.4-7.4-3-14.6-4.4-22c-2,0-5.9-0.1-7.8-1c-17.1,10.4-30.9,24.4-46.7,36.3c-11.9,9-23.9,19.1-36.1,28.3
			c1.6,3.8,3.7,7.6,3.4,12.5c-0.3,5.4-3,10.2-5.4,13.7c1.6,1.5,2.9,3.3,4.4,4.9c2.9,3.1,6.5,5.5,10.1,8c1.7,1.2,3.6,2.5,5.2,3.9
			c2.1-1.1,3.5-3.1,6-2.9c1.2,0.1,4.5,2.5,5.4,3.6c0.8,0.9,2,2.9,2.1,4.4c3.4,1.3,6,2.6,10.1,3.6c0.8,0.2,1.9,0.9,2.6,0.8
			c2.5-0.3,3-3.7,7.3-2.6c1.7,0.4,4.4,4.7,4.2,7c-0.6,5.5-11,4.9-10.9-1.6c-4.8-1-9.5-2.1-13.2-4.2c-1.3,0.9-1.7,2.7-3.4,3.4
			c1.7,1.5,2.1,4.3,2.9,6.7c0.8,2.4,1.3,5,2.6,6.7c0,0.7,0.1,1.7-0.3,2.1c8.4-2.5,10.1,10.5,2.9,11.7c-4.7,0.8-10-3.7-7.8-9.6
			c0.4-1.1,1-1.4,2.6-2.3c-1.5-2-2.1-4.7-2.9-7.3c-0.8-2.6-1.8-5.1-2.6-7.5c-1.9-0.4-3.5-0.5-4.7-1.3c-1-0.7-2.6-2.6-3.1-3.9
			c-0.4-1,0-2.4-0.5-3.6c-0.7-1.8-3.2-3-5.2-4.4c-2-1.4-4.3-2.7-5.7-3.9c-0.4-0.4-0.6-1.2-1-1.6c-0.4-0.4-1.1-0.4-1.6-0.8
			c-2.5-2.1-4.6-5.4-7.5-7.3c-3.4,2.2-8,3.2-12.7,4.2c0.1,6.3-0.4,15.4,0.8,21.5c3,1.6,5.3,3.7,5.2,7.3c-0.1,3.4-3.2,6.4-7,6
			c-6-0.6-6.8-10.1-2.1-13.5c-0.4-6.7,0-14.2-0.5-20.8c-4.7-0.9-9.7-1.6-12.5-4.4c-5.1,2.9-8.5,7.6-11.9,12.2
			c2.2,2.7,4.8,5.6,3.6,9.1c-1.4,4.2-8.8,6.6-13,3.6c-2.4-1.7-4.3-7.4-2.6-10.6c1.1-2,3.7-2.6,7-2.9c5.4-3.8,8.3-10.2,14-13.7
			c-2.7-3.4-5.2-7.1-5.7-12.7c-3-1.3-6.2-1.9-9.6-2.3c-2.6-0.4-5.2-1.1-7.5-1.6c-0.8-0.2-1.9-0.1-2.6-0.3c-1-0.3-1.9-1-2.9-1.3
			c-3.7-1-7.9-0.9-10.6-2.9c-2,0.8-2.5,2.1-4.7,2.3c-4.8,0.5-9.1-2.7-9.6-6.7c-0.6-4.8,2.5-9.3,7.8-9.3c0.1-4.8,0.3-6.9,0.8-11.7
			c-0.4-1.3-2-1.2-2.9-2.6c-2.8-4.7,0.3-12.3,6.5-9.9c1.8,2.3,4.3,3.9,3.6,8.6c-1,1.5-2.3,2.8-3.9,3.6c0,5.1-2.4,10.1-0.5,14.8
			c0.9,2.3,4.7,4.2,3.4,8.3c9.7,3.4,20.1,6.1,31.9,7.3c-0.3-12.8,6.6-19.8,18.2-21.5c-2-7.3-4.1-14.5-6.2-21.8
			c-8.3,0.4-7.8-13.9-0.5-13.7c0.7,0,1.1,0.4,2.1,0.8c0.7,0.3,1.6,0.3,2.1,0.5c1.7,0.9,3.6,3.7,3.9,5.2c0.2,1-0.1,2.1,0,3.1
			c-1.1,1.5-2.1,3.1-4.2,3.6c0.9,1.3,0.5,2.8,0.8,4.2c1.1,6.3,3.9,12,5.2,18.2c1.6,0.7,3.1,1.6,5.7,1.3c1.8-3.1,2.3-6.7,3.6-10.1
			c1.3-3.3,2.8-6.5,3.9-9.9c-3.1-3.3-2.3-10.6,1.8-12.2c4.6-0.1,7.7,0.5,7.5,5.7c-0.1,3.2-2.6,6.5-6.2,7c-2.6,6.4-5.5,12.5-7,20
			c4.2,1.1,7.5,3.1,9.6,6.2c7.1-4.8,13.9-10.1,20.5-15.3c10-7.9,19.9-15.7,29.8-23.9c9.6-7.9,18.9-16.6,29.8-23.6
			c-3.2-1.9-5.2-5-7.3-8c-7.2,0.2-14.7,0.2-21,0c-1.1,1-1.1,2.3-1.8,3.1c-0.6,0.7-1.7,1.6-2.6,1.8c-4.9,1.1-8.3-4.8-6.5-9.1
			c0.6-1.5,4-2.7,6.5-1.8c1.2,0.4,2,1.9,2.9,2.3c2.3,1.2,6.1,1.2,9.1,1.3c4.7,0.2,9-0.9,13-0.3c-0.4-2.8,0.3-5.9-1.6-7.5
			c-0.7-0.6-2.8-1.5-4.4-2.1c-4.3-1.6-9.2-3.6-13-5.7c-5.4-3-10.3-6.8-15.8-9.1c-3.2-1.3-6.3-2.1-9.3-3.1c-7.3-2.5-14.8-4.8-23.1-8
			c-2-0.8-3.8-1.6-4.7-1.6c-1.9,0.1-3.9,2.5-5.7,3.1c-9.9,3.4-17.1-4.1-17.4-13c-0.1-2.8,0.6-5.4,1.6-7.3c0.9-1.7,3-2.6,3.4-4.4
			c0.4-1.8-1-5.1-1.6-7.8c-3.7-17.9-7.7-35.6-11.2-53.2c-8.2,2.3-19.6,2.3-24.4-3.4c-2.7,2.1-4.6,5-6.7,7.8c-0.7,0.9-1.2,2-2.1,2.6
			c0.7,1.3,2.3,1.6,2.9,3.4c0.8,2.4-0.1,5.4-1.3,7.3c2,2.2,3.8,4.3,6,7c1.4,1.7,4,6.3,6.5,6.2c1.4,0,1.7-1.9,3.9-1.8
			c6.1,0.3,6.2,11.8,1,14c-4,1.7-7.4-1.5-8.3-4.9c-0.3-1.3,0.4-2.9,0-4.7c-0.5-2.2-3.8-4.6-5.4-6.5c-2-2.4-3-4-5.4-6.2
			c-1.8,3.8-1.5,8.3-2.1,12.5c-0.2,1.3-0.9,2.5-0.5,3.9c0.5,1.7,3.1,2.4,3.6,4.7c1.1,4.9-3.4,11.8-8.8,8c-1.7-1.1-3.7-5.6-3.1-8.6
			c0.4-2.3,3.3-3,4.4-4.9c0.8-1.4,1.3-5.4,1.6-7.3c0.4-2.7,0.3-5.5,0.5-8c-1.5-1.2-3.6-0.7-4.9-0.3c-4.5,1.6-8,6.8-12.2,8.6
			c2.1,4.2-1.4,10.7-7.3,10.4c-8-0.4-8.3-13.8-1.6-14.8c2.8-0.4,3.7,0.7,6.2,2.1c6.1-2,8.6-7.7,15-9.3c-2.3-5.4-0.6-12.1,6-11.7
			c0.9-1.9,2.5-3,3.9-4.7c1.9-2.2,3.7-5.3,6-7.5c-3.5-6.4-5.2-21.9,0.8-27c-3.6-5.3-6.8-10.9-10.6-15.8c-2.1,1.4-4.4,1.9-6.7,0.3
			c-2.8-2-4.3-9.4-2.9-11.7c0.7-1,1.8-1,2.9-1.3c2.5-0.8,5.2-0.9,7,0.8c1.2,1.1,2,3.5,2.1,4.9c0,1.4-0.9,2.6-0.8,3.9
			c0.2,2.2,4.2,6.5,5.4,8.3c2.1,3.1,3.7,5.9,5.7,8c3.9-1.4,6.6-4.1,11.9-4.2c0.6-4.6,1.1-10.3,1.8-15.6c0.2-1.7,0.8-3.7,0.5-4.7
			c-0.3-1.3-2.2-2.2-2.9-3.6c-1.1-2.7-0.7-4.7,0.5-7.3c0.6-0.6,1.7-0.7,2.9-0.8c0.5-0.4,0.3-1.4,1.3-1.3c3-0.4,6.2,2.6,6.5,5.2
			c0.4,3.3-2.3,7-5.4,7.5c-1.1,7.1-1.2,14.8-2.6,20.5c1.4,1.4,2.9,0.6,4.7,0.8c5.1,0.5,8.5,3.9,11.2,7.3
			c5.8-5.8,12.8-10.5,18.9-16.1c-0.7-2.9,0.5-5.4,1.8-7c4-1.8,10.1,1.2,10.6,4.9c1.1,7-8.2,12.3-12.2,5.7c-6.5,4.5-12.4,9.6-17.9,15
			c4.5,8.6,1.6,22.9-5.2,27.2c4,20.3,8.5,40.1,12.5,60.4c1.5,0.4,2.2-1,3.4-1.3c14.3-3.9,21.8,12.8,14.5,23.1
			c12.2,5.4,24.8,8.2,36.6,13.2c5.6,2.4,10.5,6,15.8,9.1c5.5,3.2,11.6,4.9,17.4,7.5c1.9-6,4.5-11.4,11.2-12.7
			c0.8-3.4-1.3-6.9-2.3-10.4c-1.1-3.5-1.6-7.3-3.1-10.4c-1.1-0.7-2.4-0.7-3.4-1.6c-3.4-3.2-2.4-10.9,2.3-11.2c4.3-0.2,8,4.1,6,8.8
			c-0.5,1.1-1.4,1.9-1.6,2.9c-0.3,1.5,0.5,3,1,4.9c1.2,4.5,2.4,9.5,3.6,13.5c3.2-0.2,7,1.2,10.4,2.3c3.8-7.8,8.1-15.1,12.5-22.3
			c-1.5-4.2,0.1-8.3,3.6-8.8c2.3-0.3,5.3,1.2,5.7,3.9c0.5,3.6-2.2,7.9-6.2,7.3c-5.5,5.6-9,13.1-12.2,21c1.2,1.2,2.5,2.6,4.2,2.9
			c2.3,0.3,6.1-2,9.1-3.4c3.2-1.4,6.2-2.5,8.6-3.6c6.3-2.9,11.4-5.4,16.6-8c5.5-2.8,11.4-5.1,16.9-7.8c5.6-2.7,11-5.6,16.1-8.3
			c19-10.1,37.7-19.6,56.6-29.6c2.7-1.4,5.6-2.6,8-4.2c2.1-1.3,4-3.6,6.2-3.9c-0.9-3.2-1.2-9-0.3-12.5c-3.9,0.1-7.6-0.3-10.6,0.5
			c-1.5,0.4-2.8,1.7-4.2,0.5c-0.7-1.4,0.1-2.8,0-4.4c-3.9-1.6-8.1-1.9-12.2-2.6c-12-2.1-24.6-4.4-37.1-6.7c-12.5-2.3-25-4.2-38.1-6
			c-4.2-0.6-8.3-1.6-12.5-2.1c-2.8-0.3-5.9,0.2-8.6-1c-2.6,5-5.3,9.9-10.4,12.5c2.8,4.4,3.5,10.9,6.2,15.3c8-1.2,6.6,10.6,0.3,10.4
			c-2.5-0.1-4.4-2.5-4.4-5.4c0-1.1,0.8-2.1,0.8-3.4c0-2.3-1.8-5.1-2.6-7.8c-0.9-2.8-1.4-5.5-2.6-7.8c-8,3-18.6,4.5-25.4,0
			c-3.8-2.5-6-7.3-7-11.9c-8-1.5-19.7-0.7-28.8-1.8c-1.8,1.1-2.4,3.3-5.2,3.4c-0.4,4.1-1,6.7-1.6,10.4c1.2,1.5,2.8,2.3,3.1,4.7
			c0.4,3.7-2.5,8.4-6.5,6.5c-2.3-1.1-3.6-4.4-3.1-7.3c0.3-1.7,1.2-3.2,3.6-3.4c-0.8-3.1,1.8-7.1,1.3-10.4c-0.2-1.7-2.1-2.7-2.6-4.2
			c-1.1-3.4,0.7-7.1,3.1-8.3c3.6-1.7,9.6,0.4,8.8,5.7c9.5,2.1,18.2,0.9,27.2,1.8c0-7.3,1.5-13.2,4.2-17.9
			c-3.8-6.8-11.2-10.1-16.6-15.3c-2.6,2.1-6.1,1.3-7.5-1.3c-1.7-3-0.8-12.3,4.7-10.1c0.7,0.3,0.9,1.5,1.8,2.1
			c0.9,0.5,2.5,2.1,2.9,3.1c0.3,1.1-0.3,2.5,0,3.6c0.7,2.5,6.1,5.8,8.3,7.5c2.1,1.6,4.2,3.3,6.5,5.4c0.9,0.9,1.4,2.1,1.8,2.1
			c0.7,0,2.8-3.3,3.6-3.9c2.8-2.1,5.9-2.7,9.1-3.6c1,0.1,1.7,0.5,2.6,0.8c0.4-0.6,0.6-1.4,1.8-1.3c3.2-9,7-17.4,10.9-25.7
			c0.1-1.3-1.8-2-2.3-3.6c-0.8-2.6,0.2-5.4,2.1-6.7c-1.8-4.2-2.6-9.3-4.4-13.5c-1.3-0.7-2.7-0.5-3.9-1.6c-1.7-1.6-2.3-5.8-0.8-7.5
			c0.5-0.6,2.7-1.2,3.4-1.3c0.5,0,0.6,0.5,1,0.5c0.7,0,2.1-0.8,3.6-0.3c2.4,0.9,3.2,3.8,1.8,6.5c-0.4,0.8-1.6,1.3-1.8,2.6
			c-0.4,2.3,1.3,4.8,2.1,7C231.2,27.5,231.6,29.6,232.4,31.9z M224.1,16.3c2.2-0.4,3.8-2.5,3.1-4.9C223.6,8.8,221.2,14.6,224.1,16.3
			z M255,26.7c1.9-0.5,3.1-3.1,2.1-4.9C254.2,21.3,254.6,24.8,255,26.7z M85.6,31.9c-1.2-0.1-2.1,0.1-2.9,0.5
			c-0.3,1.7-0.3,3.2,0.3,4.7c1.4-0.3,2.3-0.3,3.4,0.3c1.7-1.4,2.1-6.6-0.8-7C85.8,31.1,85.8,31.1,85.6,31.9z M230.9,39.7
			c1.3-0.1,2.4,0,3.4,0.3c0.9-1.1,2.1-3,1.3-4.9c-1.8,0.4-2.4-0.1-3.9-0.5C230.4,35.4,230,38,230.9,39.7z M51.9,50.8
			c2.6,0,4.3-8.1,1-9.1c-0.9-0.2-1.9,0.5-3.6,0.8C48.6,45.5,49.5,50.8,51.9,50.8z M123,57.8c2.6,0.3,5-4.4,4.2-7
			c-0.7-2.1-2.5-2.7-5.4-2.3C119.8,50.9,119.8,57.5,123,57.8z M178.2,57.3c0.2,2.2-0.7,5.3,1.6,5.4c0.6-0.2,0.6-1,0.5-1.8
			c0.4-0.6,1.5-0.4,1.6-1.3C182.3,57.1,180,56.3,178.2,57.3z M67.2,72.1c-0.6,1.3-1.1,4.3-1.3,7c-0.8,11.6,4,20.6,14.5,21.3
			c3,0.2,7.5-0.3,9.9-1.3c6.3-2.7,10.1-13.4,8.3-21.8c-1-4.8-4.8-10.4-9.1-11.9c-1.8-0.7-3.7-0.3-5.4-0.5c-0.8-0.1-1.3-0.6-2.1-0.8
			c-1.2-0.2-3.1,0.2-3.4,0.3C73.6,65.2,68.7,68.7,67.2,72.1z M263.8,69.3c-1.3,1.3-1.8,5.3-0.5,7c2.5-0.4,3.4-3.1,3.1-5.4
			C265.8,70.1,264.6,69.8,263.8,69.3z M219.5,71.3c-1.7,0.5-3.3,0.1-5.4,0.5c-8.7,1.8-15.2,12.6-15.3,22.8
			c-0.1,6.4,1.4,11.4,4.4,14.3c3.6,3.4,11.1,4.1,17.1,2.9c4.1-0.8,8.6-2.6,11.2-4.7c5.2-4.1,8.8-12.4,7.3-20.5
			c-1.1-5.6-6-11.6-9.9-13.7c-1.6-0.9-5.7-1.9-7.3-1.8C220.6,71.1,220.2,71.1,219.5,71.3z M402.3,74.4c-1-0.7-1.5-2-2.6-2.6
			c-1.6,1.2-3.1,4-1.6,6.2c0.2,0.1,0.5,0,0.5,0.3C401.3,78.4,402.6,77.3,402.3,74.4z M445.9,80.2c2.6-0.5,3.2-4.6,1.8-6.7
			C445,73.5,444.5,78.2,445.9,80.2z M463,92.3c2.2,0.3,2.9-2.5,1.8-3.9C462.9,88.3,461.8,90.9,463,92.3z M160.6,99.4
			c3.2-0.4,4.8-3.3,4.4-6.5C160.6,90.4,157.5,96.6,160.6,99.4z M377.7,103.5c-2.6,2.2-5.5,6.2-7,9.1c-2.7,5-5,15.2-2.1,21.3
			c2.1,4.3,9.4,6.8,15.3,6.5c7.2-0.4,14.8-6,18.4-11.9c1.8-2.9,3.3-7.1,3.1-10.4c-0.2-3.6-1.7-4.9-3.4-8c-1.2-2.1-2-4.3-3.6-6
			c-0.6-0.6-1.9-1.2-3.1-2.1c-1.2-0.8-2.2-1.7-3.4-2.1c-1.6-0.5-4.6-0.5-6.2-0.3C382.5,100.1,379.7,101.8,377.7,103.5z M436.3,99.9
			c-2.2,0.3-2.6,3.3-2.1,5.4C438.3,106.1,438.1,101.5,436.3,99.9z M52.1,113.1c-0.5,2.6,1.1,7,3.9,6.5c2.2-0.4,3.6-5,2.3-7.8
			C55.7,110,52.7,109.9,52.1,113.1z M456,116.7c2.2,1,3.7-0.8,3.9-2.6c-0.6-0.7-1.1-1.5-2.1-1.8C457.1,113.6,455.9,114.5,456,116.7z
			 M158.8,121.1c1.6,0,2.2-2.6,2.1-4.9C156.9,112.7,155.8,121.1,158.8,121.1z M442,130.5c1.3-0.5,2.3-1.2,2.6-2.6
			c-0.2-0.1-0.3-0.2-0.3-0.5C442.5,126.4,441.8,128.6,442,130.5z M237.4,133.9c1.2,0.1,2.4-2.1,2.1-4.4
			C236.5,127.3,235.3,132.6,237.4,133.9z M32.4,131.8c-1.3-0.9-1.2-2.6-2.9-2.6c-0.9,0-2.1,1.3-2.3,2.1c-1,2.9,1,7.2,3.4,7.3
			c2.4,0.1,4-2.9,3.9-6C33.8,131.7,33.1,132.2,32.4,131.8z M75.2,135.2c-0.7,0-1.7-0.1-2.1,0.3c-0.4,3,0.3,6.1,3.1,6.7
			c3-1.1,3.5-9-0.8-9.1C75.5,133.8,75.6,134.8,75.2,135.2z M348.9,145.5c-11.3,6.1-22.4,11.6-33.5,17.4c-5.6,2.9-11.4,5.6-16.9,8.6
			c-5.5,3-11,6.1-16.6,8.8c-5.7,2.8-11.7,5.2-17.4,8c-11.4,5.7-22.9,11.5-35,15.8c2,3,4.5,6.9,4.2,11.7c-0.3,4-2.3,7.1-3.9,9.9
			c13.5,4.1,26.6,7.4,39.2,12.2c12.5,4.7,25.2,9.3,39.2,12.2c1.9-4,4.4-7.4,7.3-10.4c-3.8-4.5-8.9-7.7-13.7-11.2
			c-7.8,1.8-8-11-1.6-11.2c1.3,0,1.5,0.4,2.9,1.3c0.8,0.5,1.8,1.1,2.3,1.8c1.9,2.5,1.3,4.9-0.5,6.7c4.1,3.7,8.5,7,13,10.4
			c0.7-1,1.7-1.7,2.6-2.6c2.4-1,5.5-2.6,9.1-2.9c3.3-0.2,6.3,0.7,8.8,1c0.5-1.9,1.2-3.8,1.8-5.7c2.1-6.1,4.8-11.7,7.3-17.4
			c3.3-7.7,6-15.8,9.9-23.1c3.9-7.2,7.2-14.8,10.9-22c3.8-7.4,6.9-15.1,10.4-22.6c-4-0.2-6.5-1.8-9.3-3.1c-0.2,1.7-1.7,2.4-2.6,3.6
			c-2.9,3.8-5.4,7.5-7.8,11.7c2.9,3.1-0.7,7.1-2.9,7.5c-8.2,1.5-9.3-12.3,0.3-9.3c1.5-2.8,3.6-5.3,5.4-7.8c1.6-2.1,3.3-5.1,4.9-6.7
			c0.4-0.4,1,0.1,1-0.8c-0.7,0-0.4-1-1-1C361,139.8,354.7,142.4,348.9,145.5z M55.8,142.2c-1.7-2-4.4-0.5-4.4,2.3
			c0,2,1.4,4.1,3.4,4.7C56.6,148,57.3,143.9,55.8,142.2z M425.4,146c-2.5,0.7-4,4.2-2.1,6.5c3.6,0.3,5.5-1.2,5.2-4.9
			C427.2,147.4,426.8,146.2,425.4,146z M353.1,159.5c2.5,0.1,3.5-1.1,3.9-3.1C355.1,153.2,350.4,156.9,353.1,159.5z M115.4,160.8
			c-0.5-0.1-2.4,0.7-3.9,0.5c-3.9,2.7-8.5,7-8,13.7c0.3,3.7,3,8.6,5.7,9.6c3.6,1.3,7.7-0.8,10.4-2.3c0.6-0.5-0.5-1.5,0.3-2.1
			c0.8-0.2,1.9-0.2,2.6-0.5C126.9,173.1,124.2,160.2,115.4,160.8z M201.6,167.8c-4.2-1.1-4,6.4-0.8,7.5
			C203.8,174.8,204.4,168.6,201.6,167.8z M235.8,175.1c1.5-1.1,2.4-3.3,1.6-5.4C233.9,167.5,232.9,174.9,235.8,175.1z M206,201.8
			c-8,2.5-10.7,17.7-5.4,24.6c2.6,3.4,7.4,4.7,10.9,4.9c9.1,0.6,18-7.3,18.9-15.8c0.4-3.7-0.4-6.2-1.8-8.3c-2.2-3.4-8.6-7.2-12.7-8
			c-1.9-0.4-3.1,0.3-4.7-0.8c-0.2-0.6-0.7,0.5-1.3,0.3c-0.6,1.2,1.7,1.5,1.3,3.4C208.7,201.7,208.2,201.9,206,201.8z M301.2,220
			c-1.9-0.2-4.2,4.9-1.6,6.2C304,227,304.6,220.7,301.2,220z M170.7,221.8c-0.2-0.1-0.3-0.2-0.3-0.5c-3.2-2.9-5,2.6-2.6,4.4
			C169.7,225.3,170.7,224.1,170.7,221.8z M319.6,240.5c-3.5,3.4-7.8,9.4-9.3,13.5c-1.9,5.1-0.2,10.6,2.1,14c3,4.6,8.1,8.3,15,8.8
			c7.6,0.6,12.3-2.6,16.3-6.7c2.9-2.9,5.7-7,6.5-9.3c0.9-2.7,0.7-7.7,0-9.9c-1.8-5.6-4.8-10.1-10.4-11.7c-0.3-0.9,0-2.2-0.8-2.6
			C331.5,233.1,323.8,236.3,319.6,240.5z M94.4,262.3c6.5,0.7,4.4-9.3,0-8.8C90.5,253.9,90.9,261.9,94.4,262.3z M390.4,260.4
			c1.3,0.9,3.8,0.4,4.7-0.5C396.9,252.5,387.8,254.9,390.4,260.4z M119.1,258.6c-1.3,2.4-1.8,7,1.3,7c2.3,0,4-4.2,2.6-7.3
			C121.9,257.5,120,257.9,119.1,258.6z M220.5,264.1c1.9-0.4,2.5-2,2.1-4.2C219.6,257.6,218.3,262.9,220.5,264.1z M45.9,274.7
			c3.1,0.2,3.9-6.6-0.8-6.5C43.6,269.8,43.5,274.6,45.9,274.7z M100.9,288.7c-7.3,1.1-12.3,4.9-14.3,10.1
			c-4.8,12.5,2.8,29.1,16.9,29.6c2.4,0.1,6.1-0.4,9.1-1.3c5.5-1.6,8.9-5.3,10.9-10.1c2.8-6.8,1.2-13.7-1.8-18.9
			c-2.6-4.4-3.9-5.8-8.3-7c-2.2-0.6-4.3-1.6-7-0.8C104.9,288.7,102.7,288.5,100.9,288.7z M47.2,299.6c0.2-1.5-0.6-3.6-1-4.2
			c-0.3-0.5-2.6-2.5-3.1-2.6c-4.1-0.4-4.4,7.4-2.3,9.1c1,0.8,1.8,0.7,4.2,0.8C46,301.7,47,301.1,47.2,299.6z M303,298.8
			c2.8,1.2,6.5-0.4,7-3.1c-0.6-0.8-1.6-1.2-1.6-2.6C305.2,292.5,302.2,295.4,303,298.8z M363.7,303c3.1,1.3,6.6-0.4,6.2-4.2
			c-0.6-0.7-1.2-1.3-1.8-2.1C364,296.2,362,300,363.7,303z M278.9,314.7c1.5,1.3,5.2-1,5.2-3.1c0-1.5-1.7-2.1-2.3-3.6
			C277.9,307.6,276.9,312.9,278.9,314.7z M302.2,321.1c-0.6-4.4-6.2,0.6-3.9,2.9C301.3,324.9,302.4,322.7,302.2,321.1z M317,325.8
			c2.1,1.1,5.2-0.4,5.2-3.1C320.4,319.2,315.5,321.4,317,325.8z M74.2,350.2c4.6,1,8-5.6,4.4-8.6c-1.8-1.5-4.9-1.3-7,0.5
			C70.9,345.7,71.6,349.6,74.2,350.2z M149.7,350.5c5.6-0.4,2.7-10.8-2.6-9.1C142.9,343.6,145.4,350.8,149.7,350.5z M176.1,352
			c-1.7-2.9-5,1.2-2.6,3.6C176.3,356,176.9,353.3,176.1,352z M106.6,354.4c-1.7,1.7-2,7.3,0.5,8.3
			C111.6,362.2,111.4,354.3,106.6,354.4z M157.5,376.7c2.8,1.5,5.8-2.9,3.6-6c-1.2,0-3,0.2-4.4,0.3
			C155.9,372.9,156,375.9,157.5,376.7z"/>
		<path fill-rule="evenodd" clip-rule="evenodd" d="M280.7,79.4c-0.2,1.9-1.3,4.5-1.8,7c2-0.4,4.1-3,7-3.4c0.4,0.3,0.7,0.7,1,1
			c-0.3,2.5-3.2,2.5-4.4,4.2c0.5,2.3,2.8,2.9,3.4,5.2c-0.3,0.4-0.7,0.7-1,1c-2.2-1-3.6-2.7-4.7-4.7c-2.1,0.6-2.6,3-4.7,3.6
			c-3.1-1.8-0.6-3.6,0.5-6.7c1-2.8,1.3-4.9,2.1-8c0.2-0.2,0.7-0.2,0.8-0.5C279.5,78.4,280.1,79,280.7,79.4z"/>
		<path fill-rule="evenodd" clip-rule="evenodd" d="M221.3,83c-0.1,5.1,0.2,9.5,1.3,13.5c0.5,1.8,2,3.5,1.3,5.2
			c-3,1-3.5-2.7-4.2-4.9c-1.4,0.4-3.3,0.3-4.7,0.8c-1.5,1.7-2.5,3.9-3.6,6c-1.1,0.4-2.5-0.4-3.1-1.3c3.5-6.4,8-11.7,9.9-19.7
			c0.1-0.3,0.5-0.4,0.5-0.8C220,81.7,220.5,82.5,221.3,83z M216.9,94.2c0.9,0.1,1.5-0.1,2.1-0.3c0-1.2-0.1-2.3-0.5-3.1
			C217.9,91.9,217.2,92.9,216.9,94.2z"/>
		<path fill-rule="evenodd" clip-rule="evenodd" d="M329.7,95.2c1,0.8,3.3,0.3,4.4,1c0.1,0.6,0.4,1,0.3,1.8
			c-1.4,0.8-3.6,0.9-5.4,0.5c-0.8,1.7-0.8,4.3-2.3,5.2c-2.9-0.6-1.3-3.4-0.8-5.4c-1-0.5-2.5-0.4-3.1-1.3c-0.3-1.3-0.3-2.1,0.5-2.9
			c1.5-0.1,1.8,0.9,3.4,0.8c1.2-2.9,1.4-6.9,3.1-9.3C334.2,87,329.2,91.5,329.7,95.2z"/>
		<path fill-rule="evenodd" clip-rule="evenodd" d="M290.8,93.4c0.7,0.9,2.6,0.5,3.6,1c-0.3,3.5-4.7,2.2-5.7,0.8
			c-0.3-0.4-0.8-2.1-0.8-3.1c0.1-2,3-5.8,6-4.9c0.8,0.2,1.9,1.5,1.8,2.6C295.6,91.9,292.6,92.6,290.8,93.4z"/>
		<path fill-rule="evenodd" clip-rule="evenodd" d="M299.6,88.2c1.4,0.4,2.4,1.1,2.3,2.9c1.1-0.7,2.3-1.7,3.4-1.6
			c3.4,0.3,3.9,6.7,1.6,9.1c-3.4,0.1-1.4-3.1-1.6-5.4c-3.2,0.1-3.5,3.1-4.7,5.2C296,99.9,299.3,90.4,299.6,88.2z"/>
		<path fill-rule="evenodd" clip-rule="evenodd" d="M313.9,92.6c5.7-3.6,9,6,4.9,9.3c-4.5-0.2,0.5-4.6-1.6-6.7
			c-3.2-0.5-3.4,3-5.2,4.7c-0.8,0.1-0.8-0.6-1.6-0.5c-0.9-1.4,0.3-2.7,0.5-4.2c0.2-1.4-0.5-3.2,1-3.9
			C313.3,91.2,313.3,92.2,313.9,92.6z"/>
		<path fill-rule="evenodd" clip-rule="evenodd" d="M392,119.1c1.5,0.6,2.4,1.8,3.6,2.6c2.1,5.6-2.6,10.3-7.5,10.1
			c-2.6-0.1-4.5-1.8-6.2-3.4c0.7-3.1,0.3-7.5,1-10.6c-1.4-0.5-1.7,2.3-3.1,2.6c-6.3-2.1,4.6-9.8,9.9-8
			C392.2,113.2,393.5,115.8,392,119.1z M384.7,116c0.9,1.3,1,1.7,0.8,3.9c2.5-0.3,4-1.7,4.2-4.4C388.2,114.3,386.1,115.5,384.7,116z
			 M385.2,123.5c0,1.7,0.1,3.6-0.3,4.9c4.4,2.1,10.2-2.6,7-6.5C388.8,121.3,388,124.5,385.2,123.5z"/>
		<path fill-rule="evenodd" clip-rule="evenodd" d="M412.2,197.1c0.2,0.8,1.7,0.4,1.6,1.6c-0.3,0.8-0.6,1.7-1.6,1.8
			c0.5,1,0.4,3.2-0.3,3.9c-2.3,0.3-3.5-1.5-2.9-3.4c-0.9,0-1.7,0-2.6,0c-0.8-0.9-1.8-2.1-0.8-3.4c1.1-0.5,2.7,0.2,3.4,0.3
			c1-3.7-0.6-7.7,1.3-9.9C414.1,188.3,411.9,194.2,412.2,197.1z"/>
		<path fill-rule="evenodd" clip-rule="evenodd" d="M365.5,197.9c1.4-1,2-2.8,3.4-3.9c3.8,0.4,1.8,4.1,0,5.2
			c0.6,2.2,4.1,1.4,4.2,4.2c-1.8,1.8-4.5-0.8-6.2-1.6c-0.9,2-3.4,5.4-5.2,2.1c1.2-4.1,0.5-10.2,1.8-14.3c1.5-0.2,1.6,1,2.3,1.6
			C365.7,193.2,365.4,195.1,365.5,197.9z"/>
		<path fill-rule="evenodd" clip-rule="evenodd" d="M387,196.6c4.2-3.4,7.7,3.7,6,7.8c-3.1,0.3-2.4-3.1-2.9-5.4
			c-3.7-0.3-1.4,5.3-4.7,4.9c-2.1-0.2-2.1-7.5-0.8-9.1C386.1,194.8,386.6,195.7,387,196.6z"/>
		<path fill-rule="evenodd" clip-rule="evenodd" d="M398.2,196.9c4.2-4.5,8.8,3.2,6,7.3c-2.9,0.2-2.1-3.3-2.6-5.4
			c-2.4,0.2-2.2,3.2-3.1,4.9c-1.8,0.3-2.2-0.7-2.9-1.6c0.9-2.8-1.3-5,0.3-6.7c0.2,0,0.3,0,0.5,0
			C397.6,195.3,397.8,196.2,398.2,196.9z"/>
		<path fill-rule="evenodd" clip-rule="evenodd" d="M378.7,202.6c1.2,0.3,1.7-1,2.6-0.3c0.1,0.9-0.1,1.5-0.3,2.1
			c-3.6,2.8-8.1-0.5-7.5-4.7c0.3-2.6,2.9-4.7,5.2-4.2c0.9,0.2,2.2,1.5,2.3,2.9C381.2,200.7,379.7,201,378.7,202.6z"/>
		<path fill-rule="evenodd" clip-rule="evenodd" d="M334.6,251.4c-2.1,0-3.5-0.7-5.2-0.5c-6.3,0.7-8.1,12.6-1.8,13.2
			c3.6,0.4,4.5-2.6,7-2.9c1.6,0.9,0.4,2.1,0,2.9c-0.9,1.6-3.8,3-6.2,2.9c-8-0.4-9.3-11.9-4.7-17.1
			C326.6,247.8,334.3,247.3,334.6,251.4z"/>
	</g>
</g>
</svg>
