<?xml version="1.0" encoding="utf-8"?>
<!-- Generator: Adobe Illustrator 15.1.0, SVG Export Plug-In  -->
<!DOCTYPE svg PUBLIC "-//W3C//DTD SVG 1.1//EN" "http://www.w3.org/Graphics/SVG/1.1/DTD/svg11.dtd" [
	<!ENTITY ns_flows "http://ns.adobe.com/Flows/1.0/">
]>
<svg version="1.1"
	 xmlns="http://www.w3.org/2000/svg" xmlns:xlink="http://www.w3.org/1999/xlink" xmlns:a="http://ns.adobe.com/AdobeSVGViewerExtensions/3.0/"
	 x="0px" y="0px" width="475px" height="408px" viewBox="-36.5 -5 475 408" enable-background="new -36.5 -5 475 408"
	 xml:space="preserve">
<defs>
</defs>
<g fill="#FFFFFF">
	<g>
		<path fill-rule="evenodd" clip-rule="evenodd" d="M119,37.3c2.2,0.1,5.2-0.1,6.4,1.8c6.1-3,11.1-6.9,16.7-10.3
			c0-2.7,1.2-4,2.4-5.5c3.9-0.6,7.5,0.5,8.2,3.9c0.8,4-2.9,8.9-7.3,8.2c-1.5-0.2-1.9-1.6-3.3-2.4c-5.4,2.7-9.6,6.6-14.9,9.4
			c-0.6,4.7-2.4,8.2-7.3,8.5c-4.8,9.1-9.4,18.5-12.8,29.1c11,1.9,16.7,9,20.9,17.6c8.1-2.8,14.6-7.1,22.8-9.7
			c0.1-5.2,2.2-10.1,6.7-7.3c1.6,1,3.6,1.8,4.9,3.3c0.7,5.4-2.9,9.9-6.7,10c-2.1,0.1-2.8-1.5-4.6-2.7c-8.4,2.1-14,6.8-21.9,9.4
			c0.6,4.4,0.9,9.3,0,13.7c12.8,0.5,24.1,3.3,36.7,5.2c30.1,4.5,60.4,11.5,90.2,16.7c1.1-3-0.6-5.9,1.5-7.3c1.4-0.7,2.3,1.1,3,1.8
			c1,0.9,2,1.6,3,2.4c3.3,2.5,7.1,4.2,9.7,7.3c4.8-10.7,10.5-20.4,23.4-23.1c2.8-4.2,6-9.1,9.1-14c1.1-1.7,2.4-3.7,2.4-5.2
			c0.1-1.5-1.1-2.7-1.2-4.3c-0.3-5.3,4.4-9.3,10.3-7c0.6,0.4,0.6,1.1,0.9,1.8c0.6,1.5,2.5,3.8,2.4,5.8c-0.1,3.5-3.5,5.5-8.2,5.5
			c-4.7,4.9-7.5,11.7-11.8,17c3.3,1.2,6.4,1.6,9.1,3.6c0.8,0.6,1.6,1.9,2.4,2.7c3.2,2.8,5.7,6.1,7.6,10.6c8.1-3.4,17.8-5.1,26.1-8.2
			c0.9,0,1.5,0.4,2.1,0.6c0.7-2.8,2.7-7,5.8-7.3c2.1-0.2,3.4,1.1,5.2,2.4c0.1,1.6,0.7,2.5,0.9,3.9c4.4,4.1,10.2,6.8,15.8,9.7
			c2.1-0.2,1.9-1.5,3.9-1.2c2.1,0.3,5.2,4.4,5.2,7c-0.1,7.8-14.4,6.7-10.3-3c-4.5-3.1-9.9-5.3-14.3-8.5c-3.3,3.1-9.3,3.7-11.8-0.6
			c-9.5,2.2-18.9,4.4-26.7,8.2c4.3,8.2-0.2,18.9-5.2,23.4c4.8,6.7,14.2,8.9,21.3,13.4c5.3-4.2,14.2,3.4,10,10
			c-3,4.8-11.8,3.5-12.8-2.4c-0.2-1.1,0.7-2.6,0.3-4.3c-0.4-1.6-2.7-2.8-4.9-3.9c-5.6-3-12.8-6-16.4-10c-5.6,4.3-11.7,9.5-21.6,8.5
			c-5.7,8-8.2,17.7-12.7,26.4c-0.5,1-1.3,2.1-1.8,3c-4,7-7.7,15-11.5,22.5c-5.6,10.8-9.6,22.6-14.9,33.7c-2.1,4.5-3.7,9.1-5.5,14
			c-0.8,2.1-1.3,4.9-3.3,6.4c0.8,0.7,1.4,1.6,1.8,2.7c8,4.2,12.5,12,13.7,23.1c12.4,0.1,26.5-0.4,37,0.6c1.7-3.4,2.5-6.5,6.1-6.7
			c4.7-0.3,9.2,6.1,7.3,11.2c-1.7,4.5-10.7,3.7-12.1-0.9c-12.3-1.8-28.6-0.3-38.3-0.9c-1.6,3.2-2.6,6.5-4.6,9.1
			c-1.9,2.6-4.6,4.3-6.7,6.7c5.2,9.5,13.4,15.9,20,24c6.7-3.6,11.9,1.2,12.1,6.4c0.4,9.5-14.1,9.9-15.2,0.9
			c-0.2-1.6,0.9-3.3,0.6-4.9c-0.3-2.1-3.2-4.4-4.9-6.4c-4.9-5.7-11.7-12-15.5-17.9c-3,2.3-7.7,4.4-13.1,4.6c-4.8,0.1-9.7-1.3-13.1-3
			c-2,4.2-3.9,8.7-6.7,12.8c-1,1.4-2.4,2.3-2.7,3.6c-0.2,0.6,0.8,1.6-0.3,1.8c3,2.6,1.5,8.1-1.5,9.7c1.4,3.4,2.6,6.4,4.3,9.4
			c1.6,2.9,3.9,5.4,4.9,8.8c1.3-0.1,2.1,1.1,3.3,1.8c1.4,0.9,2.9,1.4,3.6,2.7c2.6,5-1.4,10.8-8.2,9.7c-4.7-1.6-5.4-9.7-1.5-12.8
			c-2.4-6.5-7.4-10.4-8.5-18.2c-0.6-0.3-2.5,0.2-3.9,0c-0.8,2-1.2,4.8-1.8,7.6c-0.6,2.7-1.9,5.8-1.5,7.9c0.4,2.2,2.6,2.9,3,4.9
			c2.7,9.4-9.5,11.3-11.5,3.9c-1-3.7,0.8-7.2,4.9-8.8c0.3-3.2,1.2-6.3,1.8-9.4c0.6-2.9,2.2-6,0.9-8.8c-6.6,2.5-12,6.2-18.5,8.8
			c4.8,6.3-2.2,15.4-8.8,11.2c-2.1-1.3-3.9-6.3-3-9.7c1-3.9,6.3-7.2,10-3.6c2.4-2.5,5.9-3.7,9.1-5.2c3.3-1.5,6.5-3.3,10-4.3
			c-1.1-5.7,4.8-10.7,9.7-8.5c2.1-4.6,4.8-7.4,7.3-12.1c0.7-1.3,1.9-3.5,1.8-4.6c-0.2-1.4-2.4-2.7-3.9-4.3
			c-3.9-3.8-7.7-9.2-7.6-16.7c0-3.5,1.5-6.4,2.7-8.8c1.1-2.1,1.4-3.3,2.7-5.2c1.6-2.3,3.6-4.8,5.8-7c-4.1-5.6-10.3-9.1-15.8-13.4
			c-3.5,0.4-6.7-1.2-7.3-4.3c-0.8-4.3,3.4-9.9,7.3-8.2c0.8,0.3,0.7,0.7,1.5,1.2c3.3,2.2,6.2,5.9,2.1,9.7c4.2,4.8,9.9,8.1,14.6,12.4
			c4.6-5.4,16-8.2,23.7-4.6c1.9-4.6,3.5-9.2,5.5-13.7c1.5-3.4,2.9-6.5,4.6-10c4.5-9.3,8.2-20.4,13.1-29.8
			c4.4-8.5,8.3-17.2,12.8-25.5c4.5-8.5,7.9-17.3,12.4-25.8c-5.9-1.9-11.3-3.5-14.3-8.5c-2.7-4.5-2.4-10.5-1.8-17.6
			c-3.8-0.5-8.4-0.8-12.1,0c-1.6,0.4-2.8,1.8-4.3,0.9c-1.2-1.2-0.3-4.2,0-5.8c-41.4-8.9-83.4-17.2-127.2-23.7
			c-2.7,6.1-6.2,11.4-12.1,14.3c3.1,5.3,4.2,12.6,7,18.2c10.6-0.8,7.4,14.3-0.9,12.1c-2.1-0.5-3.5-3.3-3.6-5.8
			c-0.1-1.6,0.9-3.1,0.9-4.6c0-2.9-2.1-6.4-3-9.4c-1.1-3.5-1.8-6.6-3-9.1c-6,2-12.6,3.3-19.1,3c-2.3-0.1-4.8-0.4-6.7-1.2
			c-6.5-2.7-11-8.7-12.4-16.4c-2-1.5-5.3-1-9.1-1.2c-3.1-0.1-6.3-0.7-9.4-0.9c-5.6-0.4-11.3,0-16.1-1.2c-2,1.5-3.2,3.9-6.4,4.3
			c0,2.4-0.5,4.3-0.9,6.4c-0.3,1.6-1.3,4.2-0.9,5.8c0.4,1.6,2.7,2.1,3.3,3.9c1.3,3.8-0.6,9-3.6,9.7c-7.5,1.9-10.9-11.3-3-13.1
			c0-2.7,0.2-4.5,0.6-6.7c0.3-1.7,1.4-3.7,0.9-6.1c-0.3-1.7-2.5-2.8-3-4.6c-0.6-2-0.4-4.8,0.3-6.4c1.9-4.2,7.5-4.9,10.9-2.7
			c2.1,1.3,3.2,2,3,6.1c3.6,1.7,8.9,1.9,13.7,2.1c7.2,0.4,12.8,0,19.1,1.2c-0.3-9.2,1.8-16,5.2-21.6c-4.7-8.1-13.6-12.1-19.7-18.8
			c-2.8,2-6.6,2.3-8.8-0.9c-2.8-4-1-11.9,1.8-12.7c2.2-0.7,4.8,0.2,4.9,2.4c2.3,1.3,3.4,2,3.9,3.9c0.4,1.4-0.4,2.7,0,4.2
			c0.7,3.2,7.5,7.4,10,9.4c3.9,3.2,6.9,6.3,10,9.1c3.9-4.3,9.8-9.5,17.9-7.6c0.8-0.6,1.3-1.6,2.7-1.5c3.6-10.8,8.2-20.5,13.1-30.1
			c-0.1-1.8-2.6-2.7-3-4.9c-0.6-3.2,0.7-6.1,2.7-7.6c-2.1-5-3.1-11.3-5.2-16.4c-2.2-0.8-3.1-0.5-4.3-1.5c-2.5-2-3.8-9.2,0.9-10.3
			c0.5-0.1,5.6-0.2,6.7,0c3.4,0.7,4.5,4.5,2.7,7.9c-0.5,1-1.9,1.7-2.1,3c-0.6,3.6,2.6,8.1,3.6,11.8C118.5,34.3,118.3,35.8,119,37.3z
			 M109,18.5c3.5,0.1,4.7-2,4.6-5.5C109.9,9.7,106,15.3,109,18.5z M146.6,32.2c1.7-0.8,3.3-3.9,1.8-6.1
			C145.3,25.5,145.1,30.9,146.6,32.2z M117.8,40.7c-1.3,1.6-1.5,4.2-0.3,6.1c1.5-0.1,2.9-0.1,3.6,0.6c1.4-1,3.1-4.3,1.5-6.4
			C121,42.1,119.6,40.4,117.8,40.7z M55.9,72.9c0.2-0.4,0.6-0.6,1.2-0.6c-1.1-1.9,1.6-2.2,1.8-3.6c0.2-1.2-0.6-1.6-1.2-3
			c-1,0-2,0-3,0C53.9,67.8,53.9,71.7,55.9,72.9z M156,82.6c-1.6,1.2-2.6,7.2-0.3,8.5C159.6,90,160.5,83.5,156,82.6z M103.8,83.8
			c-3,1.4-4.1,0-7.3,0.6c-3.4,0.7-7.4,3.7-9.4,5.8c-0.6,0.6-1.5,1.1-1.8,1.5c-6.2,7.8-11.2,29.6-0.3,37.6c4.2,3.1,12.4,4.1,19.1,2.7
			c6.4-1.3,13.2-4.5,16.7-8.8c5.2-6.3,7.9-17.9,3-27.3c-2.6-5.2-10.8-13.2-19.4-12.1C104.3,83.8,104,83.7,103.8,83.8z M316.9,95
			c0.3-3.1-1.1-4.6-3-5.5c-2.2,0.9-3.2,4.7-1.8,7.3C314.3,97.6,315.9,96.2,316.9,95z M32.2,109c-1.4,2.1-1.2,6.2,1.2,6.7
			c3.2,0.6,5.6-4.3,4.9-7.6C35.6,107.3,33.7,106.8,32.2,109z M292,122.9c-8.9,4.9-16.7,18.1-16.4,30.4c0,2.2,0.4,5.1,1.2,7
			c2.3,5.6,10.5,9.2,18.8,8.5c10-0.8,20.6-10.4,23.4-20.3c1.9-6.9-0.6-9.5-3-14.3c-1.3-2.4-2.3-5.5-3.9-7.3c-0.9-1-2.5-1.7-3.9-2.7
			c-1.6-1.2-2.8-2.3-4.3-2.7c-2-0.5-4.6-0.3-6.7,0C295.3,121.7,293.8,122,292,122.9z M356.1,128.7c1.1-1.9,0.6-5.6-1.5-6.1
			c-1.4,1.2-3.1,4.4-1.5,6.7C354.5,129.5,355,128.8,356.1,128.7z M30.7,141.8c1.9,0,2.6-3.2,2.4-6.1
			C28.1,131.5,26.9,141.8,30.7,141.8z M377.6,143.3c2.9,0.3,4-1.3,4.3-3.6c-0.8-0.7-1.5-1.3-2.1-2.1
			C378.6,138.9,376.7,140.7,377.6,143.3z M124.2,158.5c1.9-0.6,2.6-2.5,2.4-5.2C123.2,150.4,121.6,157.2,124.2,158.5z M341.8,176.1
			c-2.6,0.8-4.5,4.9-2.4,7.6c3.9,0.6,6.7-1.3,6.1-6.1C343.4,177.9,343.8,175.8,341.8,176.1z M200.4,265c0.6-2-0.7-4.9-2.1-5.2
			c-2.4-0.4-3.9,2.8-3.6,6.4C196.3,268.5,199.8,266.8,200.4,265z M241.3,279.6c-0.6-0.5-2.4-0.9-3.6-1.2c-8.7-1.9-14.6,1.7-18.8,5.8
			c-4.7,4.5-9.9,11.1-11.5,17.3c-1.6,6.1,1,13.1,3.6,16.4c6.4,8.1,21.5,11.4,31.3,4.3c3.9-2.9,9.9-10.1,11.5-14.3
			c2.3-6,0-12-2.1-16.4c-2.4-4.9-3.6-7-9.1-8.8C241.5,280.9,242.5,280.5,241.3,279.6z M305.4,306.9c0-1.4,0.5-1.8,0.3-3
			c-1-5-8.6-1.5-5.8,3.6C301.4,308.7,304.4,308,305.4,306.9z M198.8,351.5c3.3,1.5,7.3-0.5,8.2-3.3c-0.4-1.4-2-1.5-1.8-3.3
			C201.5,344.1,197.8,347.4,198.8,351.5z M268,351.8c-2.7,7.1,8.9,6,7.9,0c-0.2-1.2-1.9-2.5-2.7-2.7c-0.7-0.2-1.6,0.1-2.1,0.3
			C269.8,349.8,268.4,351,268,351.8z M176.7,365.8c-0.1-1.1-2.6-3.9-3.3-3.9c-3-0.4-5.1,4.5-3,7.9
			C173.8,371,176.9,368.4,176.7,365.8z M192.8,380.4c3.9,2,6.3-3.1,3.6-5.2C193.4,375,192,377.7,192.8,380.4z M220.4,378.2
			c-1.1-0.3-2.1-1.7-3.3-1.5c-2.1,0.3-3.8,4.1-2.1,6.4C218.5,383.3,221.2,381.5,220.4,378.2z"/>
		<path fill-rule="evenodd" clip-rule="evenodd" d="M173.3,103.5c3.3-0.8,4.7-3.6,8.8-3.6c2.1,3.4-3.3,3.7-4.6,5.8
			c0.7,2.7,3.5,3.4,3.9,6.4c-0.4,0.5-1.1,0.5-1.5,0.9c-2.4-1.3-3.5-3.8-5.5-5.5c-2.6,0.9-4.6,6.2-6.7,2.4c-0.5-2.5,1.7-4.2,2.4-6.1
			c0.4-1,0.3-2.2,0.6-3.3c0.5-1.7,1.3-3.4,1.8-5.8c-0.1-0.5,0.3-0.5,0.3-0.9C178,94.6,173.6,100.6,173.3,103.5z"/>
		<path fill-rule="evenodd" clip-rule="evenodd" d="M105.6,98.4c0,1-0.3,1.4-0.3,3c-0.1,2.7,0.5,8.3,1.5,12.4c0.6,2.6,3,5.4,1.2,6.4
			c-2.1,1.1-4.2-3.3-4.3-6.1c-1.9,0.3-4,0.3-5.8,0.6c-2.2,1.9-2.9,5.4-5.2,7.3c-1.2-0.3-2.1-0.9-3-1.5c4.4-7.7,10-14.1,12.1-24
			C104.1,96.3,104.9,97.3,105.6,98.4z M100.2,110.8c0.8,0.7,1.8,0,2.7,0c-0.5-1.1-0.1-3.1-0.9-3.9
			C101.5,108.3,100.6,109.3,100.2,110.8z"/>
		<path fill-rule="evenodd" clip-rule="evenodd" d="M232.5,115.1c1.6,1.3,6.1-0.3,5.5,3.3c-1.1,0.9-4.5,0.7-6.1,0.3
			c-1.5,1.7-0.8,5.7-3.6,6.1c-2.3-1.4-0.5-4.1,0-6.1c-0.7-1.1-3-0.6-3.6-1.8c-0.3-1.2-0.3-2.1,0.3-3c1.9-0.2,2.7,0.8,4.3,0.9
			c1.4-3.5,1.8-8,3.6-10.9c0.3,0,0.6,0,0.9,0C237.1,106.7,232.3,110.7,232.5,115.1z"/>
		<path fill-rule="evenodd" clip-rule="evenodd" d="M187.6,112c0.7,1,2.8,0.6,3.9,1.2c0.3,1.3-0.6,1.2-0.6,2.1
			c-3.4,0.9-6.1-0.4-6.7-3c-0.7-3.6,2.8-8.3,6.4-7.6c1.2,0.2,2.5,1.5,2.4,3C192.9,110.6,189.6,110.4,187.6,112z"/>
		<path fill-rule="evenodd" clip-rule="evenodd" d="M200.4,109.6c1.6-0.8,2.9-2.1,4.6-1.8c3.6,0.7,3.7,8.6,0.9,10.6
			c-3.7-0.6-0.8-4.1-1.5-6.7c-4.1,0.2-3.8,4.7-6.4,6.4c-3.7-0.9-1.4-3.9-0.9-8.2c0.2-1.7,0-2.6,0.6-3.6
			C199.5,106.4,200.5,107.4,200.4,109.6z"/>
		<path fill-rule="evenodd" clip-rule="evenodd" d="M214.6,111.7c3.7-2.8,7.8,1.6,7.6,5.8c-0.1,1.9-1.4,5.1-2.7,5.2
			c-4.6,0.1,1.7-7-1.5-8.2c-3.7,0-3.9,3.6-5.8,5.5c-1.1,0-1.4-0.9-2.1-1.2c0.2-3.3,1.1-5.8,1.8-8.5
			C213.6,109.9,213.6,111.3,214.6,111.7z"/>
		<path fill-rule="evenodd" clip-rule="evenodd" d="M304.2,144.2c7.8,3,4.4,13.7-3,14.6c-3.8,0.4-6.6-1.8-8.8-4.3
			c1.1-3.3,1.1-9.2,1.2-12.4c-1.7,1.4-4.3,6-5.8,0.9c1.2-2.9,8.3-8.1,13.7-6.7C304.1,137,306.2,141,304.2,144.2z M296,140.6
			c0.8,1.2,1.1,2.7,0.6,4.6c3-0.3,4.6-2.1,5.2-4.9c-0.2-0.1-0.4-0.3-0.3-0.6C299.6,138.8,297.1,139.7,296,140.6z M296.3,149.4
			c0.1,2,0,3.8-0.3,5.5c4.5,3,12.2-2.7,8.2-7.3C300.2,146.8,300,149.8,296.3,149.4z"/>
		<path fill-rule="evenodd" clip-rule="evenodd" d="M325.4,224.6c1.7,2.4,0.5,7.2,0.3,10.3c0.1,0.9,1.6,0.4,1.8,1.2
			c0.1,1.5-0.9,2-1.5,2.7c0.1,1.7,0,3.3-0.6,4.3c-2.7,0.4-3.8-1.9-3-3.9c-1,0-2,0-3,0c-0.4-1-1.5-1.3-1.2-3c0.4-0.2,0.7-0.5,0.9-0.9
			c1.2,0.1,2.4,0.2,3.3,0.6c1.1-3.4-0.2-7.8,1.2-11.2C324.2,224.6,324.8,224.6,325.4,224.6z"/>
		<path fill-rule="evenodd" clip-rule="evenodd" d="M272.3,235c1.5-0.1,2.7-2.9,3.9-4.3c4.3,0.6,2.1,4.7,0,6.1
			c0.5,2.7,5,1.5,4.6,5.2c-2.7,0.8-5.2-1-6.7-2.4c-1.4,1.1-1.9,3.2-3.3,4.3c-1.6,0.2-2.1-0.8-2.7-1.5c0.8-5,1.4-10.4,1.5-16.1
			c0.2-0.3,0.8-0.2,0.9-0.6c1.3-0.1,1.3,1.1,2.1,1.5C272.6,230.4,272.5,233.3,272.3,235z"/>
		<path fill-rule="evenodd" clip-rule="evenodd" d="M297.2,234.1c1-0.6,2.1-1.1,3.9-0.9c2.4,1.5,4.2,6.4,2.7,9.7
			c-4,0.1-2.3-3.8-3.3-6.4c-2.9,0.3-2.7,3.8-3.9,5.8c-1.9,0.3-2.3-0.8-3-1.5c0.6-3.4-1-6.4,1.2-8.8
			C296.3,231.9,296.6,233.1,297.2,234.1z"/>
		<path fill-rule="evenodd" clip-rule="evenodd" d="M287.5,241c1.1,0,2.3-1.2,3-0.6c0.1,1-0.1,1.7-0.3,2.4c-2.2,2.1-6.5,1-7.9-1.2
			c-1.9-3,0.5-8.8,3.6-9.1c1.9-0.2,4,1.1,4.3,3.3C290.5,238.8,288.4,238.8,287.5,241z"/>
		<path fill-rule="evenodd" clip-rule="evenodd" d="M310.2,234.4c0.8-1.1,2.2-1.7,4.3-1.5c2.5,1.3,4.1,7.1,2.1,10
			c-1.3,0.1-1.5-0.9-2.4-1.2c-0.2-1.7,0.1-3.2-0.3-5.2c-3.1,0.1-2.6,3.8-3.9,5.8c-1.8,0.2-2.2-1-3-1.8c0.6-2.7,0-4.5-0.3-7
			C307.9,231.6,309.2,233.5,310.2,234.4z"/>
		<path fill-rule="evenodd" clip-rule="evenodd" d="M236.2,296.6c-2.4,0.6-3-0.5-4.6-0.6c-6-0.2-9,5.9-8.2,10.9
			c0.3,2.1,2.2,4.4,4.9,4.6c3.2,0.1,5-2.8,8.2-3.3c0.3,5.9-5.8,6.9-8.8,6.4c-4.1-0.7-7.7-5.3-7.6-10.3c0.1-2.8,1.3-7.3,3.3-9.1
			C226.1,292.7,235.1,291.7,236.2,296.6z"/>
	</g>
</g>
</svg>
