<?xml version="1.0" encoding="utf-8"?>
<!-- Generator: Adobe Illustrator 15.1.0, SVG Export Plug-In  -->
<!DOCTYPE svg PUBLIC "-//W3C//DTD SVG 1.1//EN" "http://www.w3.org/Graphics/SVG/1.1/DTD/svg11.dtd" [
	<!ENTITY ns_flows "http://ns.adobe.com/Flows/1.0/">
]>
<svg version="1.1"
	 xmlns="http://www.w3.org/2000/svg" xmlns:xlink="http://www.w3.org/1999/xlink" xmlns:a="http://ns.adobe.com/AdobeSVGViewerExtensions/3.0/"
	 x="0px" y="0px" width="486px" height="283px" viewBox="-23.8 -9 486 283" enable-background="new -23.8 -9 486 283"
	 xml:space="preserve">
<defs>
</defs>
<g fill="#FFFFFF">
	<g>
		<path fill-rule="evenodd" clip-rule="evenodd" d="M426.8,7.8c1.3,0.7,2.8,0.2,3.4,1.6c0.6,1.4-1.6,5.7-1.8,8.1
			c-0.2,2.6,0.4,5.2,0.5,7.8c0.3,7.4-0.6,14.8-0.8,22.1c-0.3,9.5-0.3,19.3-0.8,29.2c-0.4,9.8-1,19.7-1.3,29.7
			c-0.5,19.5-0.3,40.3-1.3,61.8c-1.2,25.7-0.8,49-2.3,75.8c-0.2,2.7-0.3,5.4-0.3,8.1c0,2.5,0.5,4.9-0.3,7.3
			c-6.9,0.5-13.7-0.9-20.6-1.3c-20-1.2-41.1-2.6-61.8-3.4c-6.7-0.3-13.7-0.5-20.6-0.8c-6.9-0.3-13.8-1-20.6-1c-7,0-14.1-1-21.1-1
			c-6.9,0-13.8-0.1-20.1-1.6c-1.2-4.7,0-9.5,0.3-14.3c0.8-13.3,1.7-29.2,2.3-44.8c0.9-20.5,1.9-41.2,1.3-61.5
			c-0.3-10.2-1.2-20.3-1.6-30.5c-0.6-20.1,0.7-40.4,2.1-60.7c0.7-9.7,1.1-19.2,0.3-27.9c25.7-0.3,54.1-0.5,80-1
			c6.9-0.1,13.9,0.5,20.8,0.5c19.9,0,41.3-0.9,62-1c0.5-0.2,0.8-0.5,1.3-0.8C426.5,8.2,426.5,7.8,426.8,7.8z M406,12.2
			c-13.5,0.6-26.4,0.7-39.6,0.5c-7-0.1-13.9-0.5-20.6-0.5c-28-0.2-55.2,1.3-81,0.5c-0.9,19.9-1.5,39.5-2.3,58.9
			c-0.8,19.3,0.4,38.4,1.3,58.1c0.4,10.1,0.1,19.9-0.3,30c-0.3,9.7-0.3,19.4-0.8,28.9c-0.9,19.6-2.8,39.1-2.6,58.9
			c52.5,2.7,107.2,4.9,159,7.8c1.1-19.4,1.9-39.5,2.3-59.9c0.4-20.4,1.6-41,1.6-61.5c0-20.5,1.4-41.1,2.1-61.5
			c0.5-15.8,0.8-30.6,1.3-45.6c0.2-5-1.1-10,0.3-14.9c-0.3,0-0.3-0.2-0.5-0.3C420.5,13.1,413,11.9,406,12.2z"/>
		<path fill-rule="evenodd" clip-rule="evenodd" d="M233.2,42.5c6.5-2.7,12.4-8.3,19-11.7c0.2-1-2-1.6-1.3-3.9
			c1.4-0.8,2.7,0.2,4.4,0.3c2.3,0,4.6-1.2,5.2,1c0.4,1.3-1,3.2-1.8,4.7c-0.8,1.5-1.6,2.9-2.6,3.6c-1.5,0.1-1.6-2.3-1-3.4
			c-3.4,1.3-6.4,3.5-9.4,5.5c-8.8,5.8-18,11.4-26.8,17.5c-11.7,8.1-23.9,15.2-35.2,23.7c-0.1,32.3-0.8,63-0.8,94.1
			c0,15.9,1.8,31.1,2.1,46.1c0.1,3.9,0.3,7.8,0.5,11.7c0.2,3.6,0.5,7.4-0.3,10.9c-10.5-0.3-21.5-1.2-32.8-1.8
			c-11.1-0.6-22.4-0.9-33.9-0.5c-11.6,0.4-23.2,0.9-34.9,0.5c-18-0.6-37.9,0.1-52.1,0.3c-6.1,0.1-11.7,1.3-17.5-0.5
			c-1-3-0.3-6.1,0-9.1c0.7-7.9-0.4-17.9-0.3-26.8c0.1-11.3,1-22.9,1.3-36c0.2-9.7,0-20.4,0-30.7c0-11.1,0.3-21.9,0.5-30.7
			c0.1-6.3-0.2-12.9,0-19.5c0.3-8.7,0.5-17.1,0.3-26.1c-0.2-7.1-1.1-14.2-1-21.6c0-7.3-0.7-14.7,0.3-22.1
			c10.6-1.8,21.5-1.3,31.3-1.8c16.3-1,32.8-1.7,47.4-1.6c3.6,0,7,0.2,10.7,0c3.3-0.2,6.7-0.4,10.2-0.5c14.3-0.7,29.1-2.7,44-3.4
			c7.1-0.3,14.3,0.2,21.1-0.5c2.1-0.2,3.7-1.4,5.5,0c-0.6,20.4,0.2,43.7-1.3,65.1c1.2,0.1,2.3-1,3.1-1.6
			C201.5,63.2,218,53.6,232.4,43c-2.6,0-4.4-0.8-6-1.8c-0.7,2,0.4,4.1-1.3,5c-2.9-0.5-2.7-4.5-3.4-7c-0.7-2.8-2-5.5-1.8-7.8
			c3.9,0.1,3,4.8,4.4,7.3c0.7-0.9,1.4-2,2.1-3.1c0.6-0.9,0.8-2.7,2.9-2.1c2.2,2-1.1,3.5-1.6,5.2c1.1,1.8,4.5,1.3,5.7,2.9
			C233.5,41.8,233.6,42.4,233.2,42.5z M139.4,14.3c-13.6,1.2-27.3,2.5-40.1,2.3c-7.8-0.1-15.4,0-22.7,0c-6.9,0-13.6,0.7-20.3,1
			c-13.7,0.7-27.2,0.7-40.7,2.6c1.6,8.6,1.4,17.6,1.8,26.6c0.4,8.6,1,17.1,1,25.8c0.1,9.4-0.5,18.9-0.5,28.4c0,9,0.2,18.1,0,27.1
			c-0.4,18.5-0.2,36.6-0.8,53.9c-0.3,8.4-0.9,16.8-0.8,25c0.1,8.5,1,16.9,0.5,25c-0.1,1.9-0.6,3.9-0.5,5.7
			c6.4,1.1,13.2-0.3,20.1-0.3c21.4,0,43.8,0.3,63.6,0c14.1-0.2,28.1-1,42-0.5c13.8,0.4,27.3,1.3,40.7,1.8
			c0.2-26.2-2.7-50.5-2.3-77.7c0.2-12.9,0.5-26.4,0.5-39.9c0-13.4-0.7-26.9,0.3-39.6c-1.2-0.1-2,1-2.9,1.6
			c-7.1,4.9-14.2,9.8-21.4,14.3c-0.9,0.7-3.1,2-3.9,0.5c-0.8-1.7,1.4-2.5,2.3-3.1c6.9-4.6,11.8-7.7,18.8-12.5c1.7-1.2,6.4-3.9,7-5.5
			c0.7-1.7,0.4-5.4,0.5-8.1c0.7-17.9,0.1-39.5,0.8-56.8c-0.2,0-0.3,0-0.5,0C168.4,12.9,153.8,13.1,139.4,14.3z"/>
		<path fill-rule="evenodd" clip-rule="evenodd" d="M383.6,24c0.9,2.3-0.2,6.3-0.3,9.4c-0.7,0.7,1.6,1.7,0.5,2.9
			c-2.1,1.3-4.8,0.8-7,0.8c-17.2,0-32-0.1-47.7,0c-9.1,0.1-18.2,0.7-27.6,0.8c-6.8,0.1-13.5,0.5-21.1,0.5c-2.3,0-4.8,0.4-7-0.5
			c-1.2-1.4-0.2-3.7,0-6c0.2-2.5-0.4-4.9,0-6.5c14.2,0.7,29.1-1.4,44.8-1.6c20-0.2,40.7,0.4,60.2-0.3
			C379.9,23.4,382.2,22.7,383.6,24z M313.7,26.6c-12.9,0.6-25.7,1.3-38,1.3c-0.1,2.5,0.3,5.5-0.3,7.6c11.4,0.4,21.6,0.2,32.1-0.3
			c17.1-0.7,35.3-0.3,51.1-0.8c6.9-0.2,14.4,0.5,21.6-0.5c1-2,0.6-5.5,1.3-7.8C359.7,27,337.3,25.5,313.7,26.6z"/>
		<path fill-rule="evenodd" clip-rule="evenodd" d="M63.6,68.5c-5.6,1.4-11.8,0.7-17.7,1.3c-2.8,0.3-5.7,0.9-8.6,1.3
			c-2.9,0.4-6,0.8-8.6-0.5c-0.7-1.9-0.2-4.2-0.3-6.3c-0.2-5.6-0.9-11.4-1-16.9c-0.2-5.7-0.3-11.8-0.5-18.2c5.7-0.9,11.5-1,17.2-2.1
			c2.8-0.5,5.6-1.1,8.3-1.3c3-0.3,5.4-0.1,8.1-0.8c2-0.5,1.8,1.5,1.8,3.4c0,6.1-0.5,15.6-0.3,24.5c0.1,3.4-0.1,7,0.3,10.2
			C62.5,65.3,63.9,66.8,63.6,68.5z M49.5,28.1c-6.9,1-13.7,2.9-21.4,3.1c1.5,7.2,1.3,16.9,1.8,26.1c1.9,2.8,0.6,8,1.3,11.5
			c5.5,0.9,8.7-1.1,14.3-1c0.4-1,1.3-1.3,1.6-2.3c-1.1-1.6-1.3-4-2.3-5.7c-2.4-0.2-3.8,2.2-5.7,2.1c-2.7-0.1-3.7-3.3-4.2-6.5
			c-1.2-0.8-3.3-0.7-3.4-2.6c0.4-1.5,2-2.1,2.3-3.6c0.2-1.1-0.5-2.2-0.5-3.4c0-2.8,1.3-4.6,3.9-6.3c-2.3-4.5,4.9-7.5,9.1-6
			c1.7,0.6,1.9,2.2,3.1,2.6c0.8-0.6,1.6-1.4,2.6-1.8c1.7,0.6,3.2,1.3,4.4,2.3c0.2,2.4,2.4,2.6,3.1,4.4c0-5.1,0.5-8.2-0.3-13
			C56.1,28.6,52.8,27.7,49.5,28.1z M39.6,37.5c-2,4.5,6.3,5,7,8.6c0.3,1.4-0.6,2.5-0.3,3.6c2,0.8,4.7,0.9,3.9,4.4
			c0.6,0.7,2,0.6,2.9,1c0.7,1.7-0.1,3.2,0.8,4.7c1.1,1.7,3.9,2.1,6,2.9c0.3-2.8-0.6-5.5,0-7.8c-1.5-1.6-3.4-3.9-2.1-6.8
			c-0.5-1.4-1.9-1.9-2.1-3.6c0.2-1.3,1.3-1.7,1-3.4c-0.6-0.9-2.1-0.9-2.6-1.8c-0.5-0.5-0.4-1.7-1-2.1c-1.8,0.1-2,1.9-3.9,1.8
			C47.5,39,47,37.6,46.1,36C43,35.3,40.3,35.8,39.6,37.5z M38.3,41.4c-0.3,0-0.5,0-0.8,0c-1.6,1.9-2.4,5.3-1,8.1
			c-0.3,1.2-1.4,1.5-1.6,2.9c2.9,0.7,1.5,5.6,3.9,6.8c2.2-0.9,4.5-1.7,7-2.3c1.7,0.6,1.1,2.2,1.6,4.2c0.6,2.6,2.3,4.2,1.8,6.3
			c3.8,0,7.5-0.1,10.9-0.5c-0.7-2.8-4.3-2.7-6.3-4.2c-1.6-1.2-2.7-3-2.9-5.2c-1.6-1-3.5-1.7-3.4-4.4c-3.1-1-4.8-3.3-3.6-7.3
			C41.9,44.4,39.4,43.7,38.3,41.4z M59.7,45.9c0-0.9,0.1-2.1-0.5-2.3C58.7,44.3,58.2,45.8,59.7,45.9z"/>
		<path fill-rule="evenodd" clip-rule="evenodd" d="M162.1,31.3c-1.1,2-3.5,0.8-5.2,0.8c-1.8,0-3.9,0.5-5.7,0.5c-3.9,0.1-8-0.1-12,0
			c-7.7,0.2-15.5,1.2-23.2,1.6c-11.7,0.5-23.6,1.2-35.4,1.3c-3.5,0-7.6,1.2-10.4-1c1-1.8,3.4-1,5-1c27.4-1.2,52.2-1.9,78.4-3.4
			C155.9,29.8,161.3,28.5,162.1,31.3z"/>
		<path fill-rule="evenodd" clip-rule="evenodd" d="M69.6,47.2c2.6-0.7,6.1-0.2,9.9-0.3c15.7-0.2,30.5-0.9,47.2-2.3
			c9.2-0.8,18.2-1.8,27.9-2.3c1-0.1,6.6-0.7,6.8,1.3c0.2,2.1-3.4,1.6-5,1.6c-14.7,0-27.9,1.7-42.2,2.9c-11.8,1-22.9,0.7-34.9,1.6
			C75.8,49.8,70,51,69.6,47.2z"/>
		<path fill-rule="evenodd" clip-rule="evenodd" d="M221.2,48.7c-0.3,0-0.5,0.1-0.5,0.3c-2.1-0.4-2.2-2.8-3.4-4.2
			c-2.5,1-2,4.6-1.6,7.3c-3.6,1.7-4.3-3.7-5.5-6.3c0.4-0.6,2.2-0.8,2.6,0c1.4-1.7,1.8-3.8,4.2-3.6C219.6,42.3,222.4,46.3,221.2,48.7
			z"/>
		<path fill-rule="evenodd" clip-rule="evenodd" d="M207.4,43.3c0,0.8,0.1,1.7-0.3,2.1c-1.3,0.1-2.2-0.2-2.9-0.8
			C203.2,42.3,206.4,42,207.4,43.3z"/>
		<path fill-rule="evenodd" clip-rule="evenodd" d="M195.7,46.6c3,2.1,1,9,3.9,11.2c2.8,0.2,2-3.2,3.6-4.2c4.4,1.1,0.1,6.4-1.6,6.8
			c-6.5,1.5-6.3-7.6-7-13c-0.1-0.6,0.5-0.4,0.5-0.8C195.3,46.6,195.5,46.6,195.7,46.6z"/>
		<path fill-rule="evenodd" clip-rule="evenodd" d="M206.4,48.7c1.3,1.4,0.8,3.4,1.8,4.7c0.5-0.6,0.2-1.9,1-2.1c2.4,0.8,2,4.4,0.3,5
			c-3.3,0.9-5.9-4.3-4.4-7.6C205.5,48.7,205.9,48.7,206.4,48.7z"/>
		<path fill-rule="evenodd" clip-rule="evenodd" d="M354.9,55.2c-1.4,1.3-3.3,0.3-5,0.3c-4.3-0.2-10.7,0-16.7,0.3
			c-5,0.2-10.3-0.3-15.6,0c-9.9,0.5-20.1-0.5-30.7,0c-2.1,0.1-5,0.3-7.3,0.3c-1.9,0-5.7,0.9-5.7-2.3c1.6-0.9,3.4-0.1,5.5,0
			c4.3,0.2,9.2-0.3,14.1-0.5c4.6-0.2,9.3,0.3,14.1,0.5c4.9,0.2,10-0.2,14.9-0.3c9.6-0.2,15.5-0.3,24.5-0.3
			C349.7,53.2,354.5,52,354.9,55.2z"/>
		<path fill-rule="evenodd" clip-rule="evenodd" d="M144.6,57.8c1.2,0,6.8,0.2,12,0c2.7-0.1,7.8-1.1,7.3,1.6
			c-0.3,1.4-1.9,0.7-4.7,0.8c-5.8,0.1-11.9,0-16.7,0c-8.6-0.1-15.2,0.9-21.6,1.3c-15,1.1-30.5,1.7-44.3,1.8c-1.9,0-7.7,0.3-7-2.3
			c0.4-1.8,4-0.6,5.2-0.5c10.9,0.6,24.8-0.6,34.7-0.8C121.9,59.4,132.4,57.9,144.6,57.8z"/>
		<path fill-rule="evenodd" clip-rule="evenodd" d="M409.6,67.8c-1.3,2.4-5.6,1.7-9.1,1.6c-4.5-0.2-8.7-0.5-13-0.5
			c-2.2,0-4.6-0.1-6.8-0.3c-8.8-0.6-17.8-1.3-27.1-1.3c-18.7,0-37.1,1.2-54.7,1.8c-6.8,0.2-13.6,1.1-20.8,1c-1.8,0-4.3,0.5-4.2-2.6
			c1.5-1,3.4-0.1,5,0c5,0.3,10.4-0.6,15.9-0.8c10.4-0.4,21.3-0.6,32.6-1c17.3-0.6,33.4-1.5,50.3,0c5.8,0.5,11.6,0.2,17.2,0.5
			c3.9,0.2,7.6,0.2,11.7,0.5C407.5,66.8,409.1,66.3,409.6,67.8z"/>
		<path fill-rule="evenodd" clip-rule="evenodd" d="M31.5,79c0.9-1.3,2.7-0.8,3.9-0.8c10.2-0.2,20.4-0.1,29.4-0.5
			c5.1-0.2,11,0,16.9-0.3c11-0.4,22.5-1.8,33.9-2.3c5.6-0.3,10.4,0,15.6-0.3c7-0.3,16.7-0.7,25-1c1.2,0,6.4-1.2,7,0.8
			c1.1,3.3-5,2.3-7,2.3c-9.5,0-16.7,0.4-25,0.8c-11.4,0.5-23.6,0.6-34.7,1.6c-10.8,1-22.3,0.8-33.6,1.6c-7.8,0.5-16.5,0.1-25.3,0.5
			C35.6,81.4,31.7,82.2,31.5,79z"/>
		<path fill-rule="evenodd" clip-rule="evenodd" d="M320.3,81.3c0.8,1.5,0,3.2-0.3,4.7c-0.9,4.9-1.1,10.1-1.8,15.4
			c-0.7,4.9-1.4,10.3-1.8,14.9c-0.2,1.9-0.6,3.7-0.5,5.2c0,0.7,0.5,1.4,0.5,2.1c0.1,2.6,0.1,5.5-0.3,8.1c-1.7,0.3-1.9-0.9-3.1-1
			c-11.4-1.3-22.2-1.4-34.4-1.6c-1.4,0-3.2,0.5-4.2-0.8c-0.7-0.9-0.2-2.3,0.8-2.3c-2.4-2.7-1.7-6.9-1.3-10.2
			c0.4-3.7-0.2-7.1-0.3-9.6c-0.1-5.9,0.8-12,1-17.7c0.1-2.8-0.3-5.6,0-8.1c0.1-0.4,0.4-0.6,0.8-0.8c6.2,1.3,14.9,1.4,22.9,1.3
			c6.1-0.1,12.2,0.2,17.5,0.3C317.3,81,318.9,80.3,320.3,81.3z M277.5,82.6c-1,7.8-1,16.4-0.8,24.2c0.4,0.3,1.3-0.6,2.3,0
			c0.6,0.5,2.7,3.1,3.1,2.1c0.6-0.9-0.1-1.6,0.3-2.6c2.4-1.6,4.5-3.4,7.3-4.7c-1.7-1.8-5.7-3.4-6-6.8c-0.1-1.6,1-3.8,1.8-4.2
			c2.2-0.8,6.3,1.7,7.3,2.3c2.1,1.4,4.4,4,6,5.5c3-0.1,7.3-2,9.1,0.5c0.4-1.3,2.2-1.1,2.9-1c2.3,0.3,3.1,3.6,4.2,5
			c-2.1,3.5-7.6,2.2-10.4,4.7c1.4,1.4,2.7,3,4.7,3.9c0.7,2.1,3.2,2.3,3.1,5.2c-0.2,0.7-1.2,0.5-2.1,0.5c-2.3,3.9-7.7,1.2-10.2-1
			c-1.8-1.6-3-3.7-4.2-5c-4.8,1.8-9.3,3.9-14.1,5.7c-2.7-1.4-4.4-4-5.2-7.3c-0.7,3.7,0.1,10-0.3,14.1c-0.1,1.1-0.9,2-0.3,2.1
			c9.5,0.8,22.2,1.1,32.8,1.6c1.7,0.1,3.2,0.7,4.7,0c0.4-1.8-0.7-3.3-0.8-5c-0.1-2.7,0.6-5.8,1-8.9c1.3-9.8,3-20.2,3.4-30
			C304.4,82.4,290.7,83.7,277.5,82.6z M287.2,93.8c-0.4,0.3-0.3,1.1-1,1c1.1,2.8,4.1,3.9,6.5,5.5c0.9-0.5,2.1-0.6,3.1-1
			C294,96.4,291.6,94.1,287.2,93.8z M308.5,102.4c0.6-0.1,1.6,0,1.6-0.8c-1.2,0.6-2.3-1.1-1.8-0.5
			C308,101.8,308.6,101.8,308.5,102.4z M302,101.6c-0.3,0.5,1.3,1.3,0.8,2.9c1.4,0,1.9-1.1,3.4-1c0-0.9-1-0.9-0.8-2.1
			C304.2,101.4,302.9,101.3,302,101.6z M299.7,103.5c-0.2-0.5,0.4-1.8-0.5-1.6c-2.5,0.6-5.1,1.2-7,2.3c1.7,0.3,2.9,1.1,2.6,3.4
			c-0.4,0.1-0.7,0.4-1,0.5c-1.6-0.3-2.4-1.4-2.3-3.4c-3.2,1.5-6.2,3.1-7.6,6.5c-1.7-0.5-1.6,1.9-3.1,0.8c-0.1,0.9,0.8,0.8,1,1.3
			c6.9-2.2,13.2-5.1,19.5-7.8C300.9,104.7,300,104.3,299.7,103.5z M298.6,110.5c1.8,3,6.2,8,10.2,4.7c-1.4-2.5-4.6-3.5-6-6
			c-0.2-0.3,0.2-1-0.5-0.8C301,109,299.5,109.4,298.6,110.5z"/>
		<path fill-rule="evenodd" clip-rule="evenodd" d="M99.8,89.6c0.6,3.6,0.4,8.6-0.3,12.8c0.4,1.4,0.9,1.7,0.5,3.1
			c-2.1,1.2-5.2,0.8-8.1,0.8c-9,0-17.4,1.2-25.8,1.6c-8.9,0.4-16.9,0.8-26.3,1.3c-2.3,0.1-6.6,0.8-7.6,0c-1.2-1-0.5-3.3-0.5-5
			c-0.1-4.6-1.3-9,0.3-11.7c13.8-0.2,25.9-1.7,39.1-2.1C78.2,90.2,89.9,89.6,99.8,89.6z M65.9,93.5c-10.6,0.8-21.1,1.6-32.3,1.8
			c0.4,3.5,0.5,7.3,1,10.7c20.7-0.6,42.5-1.9,62.3-3.1c0.2-3.4,0.3-6.8,0.3-10.4C86.5,93,76.2,92.7,65.9,93.5z"/>
		<path fill-rule="evenodd" clip-rule="evenodd" d="M297.6,106.8c-1.6,0.2-2.6-1.1-2.6-1.8C294.9,101.9,299.7,104.1,297.6,106.8z"/>
		<path fill-rule="evenodd" clip-rule="evenodd" d="M31.5,120.6c0.9-1.6,4.2-0.6,7-0.8c10.6-0.5,21.6-1.6,32.8-2.3
			c13.6-0.8,27.7,0.5,41.4,0.8c6.6,0.1,13.7-0.5,20.6-0.8c8.2-0.4,16.7-0.1,23.5-0.8c0.7-0.1,2.1-0.1,3.1,0c1.6,0.1,2.1-0.2,2.6,1
			c0.7,1.8-1.5,1.7-2.3,1.8c-2.4,0.5-2,0.2-3.4,0.3c-8.9,0.5-16.9,0.2-24.8,0.5c-12.3,0.5-23,0.5-34.7-0.3
			c-17.1-1.1-33.2,0.8-50.3,1.6c-2.7,0.1-5.8,0.3-8.6,0.5C36.3,122.4,32.6,123.5,31.5,120.6z"/>
		<path fill-rule="evenodd" clip-rule="evenodd" d="M30.2,133.7c1.8-1.9,5.8-0.6,8.6-0.5c9.4,0.4,19.7-0.3,30-0.8
			c5.2-0.3,10.6,0,15.9,0c5,0,9.8-0.4,14.6-0.5c20.6-0.7,41.7,0.5,59.4-0.8c1.1-0.1,4.7-1.5,4.4,1.6c-0.2,2.6-4.6,1.4-6.3,1.3
			c-7-0.2-17.5,0.5-25.8,0.5c-20.2,0-44.8,0.3-68.8,0.8c-7.9,0.1-17.2,0.5-25.8,0.5C34.1,135.8,30.5,136.6,30.2,133.7z"/>
		<path fill-rule="evenodd" clip-rule="evenodd" d="M276.7,141c23.3,2,40.8,0.6,65.9,2.1c11.2,0.7,22.5,0.8,33.4,1.3
			c8.1,0.4,14.9,0.9,23.5,1.6c1.9,0.1,7-0.4,7,1.8c0,2.8-6.4,0.9-8.1,0.8c-34-2.2-75-3.7-109.2-4.2c-2.3,0-5.1-0.2-7.6-0.3
			c-1.8-0.1-5.7,0.9-5.7-2.3C276.4,141.7,276.1,140.9,276.7,141z"/>
		<path fill-rule="evenodd" clip-rule="evenodd" d="M107.6,147.7c11.4,0,31.2,0,44.6-0.3c2.4,0,7-0.1,9.9,0.3c1.9,0.2,2.6-0.2,2.9,1
			c0.7,2.8-5.6,1.8-7,1.8c-8.7,0.4-17.3-0.1-26.1-0.3c-15.7-0.4-35.4,0.1-52.1,0.5c-11.9,0.3-25.5,0.5-42,0.5c-1.8,0-7.6,0.9-7-2.1
			c0.4-1.9,1.8-1.1,3.6-1c10.3,0.3,26,0.1,33.9,0C82.1,148.1,93.7,147.8,107.6,147.7z"/>
		<path fill-rule="evenodd" clip-rule="evenodd" d="M277.3,156.6c4.9,1.9,14.2,1,20.8,0.8c5.1-0.1,10.5,0,15.6,0
			c11.2,0,20.7-0.3,32.1,0.3c13.5,0.6,27.9,1,40.9,1.3c6.4,0.1,9.6,0.4,16.4,0.8c1.5,0.1,7-0.5,7,1.8c0,2.5-4.8,1.1-6.8,1
			c-17.6-0.9-37.8-1.5-56.3-2.3c-17.2-0.8-33.6,0-48.7,0c-5.5,0-11.3,0.5-16.4,0.3c-1.9-0.1-5.9-0.4-5.7-3.4
			C276.6,157,276.9,156.7,277.3,156.6z"/>
		<path fill-rule="evenodd" clip-rule="evenodd" d="M31.5,162.1c1.2-1.6,3.2-0.6,4.7-0.5c2.9,0.1,6,0,9.1,0
			c6.2-0.1,14.5,0.5,22.4-0.3c4.9-0.4,14.7,0.1,21.4,0c1,0,5-0.7,5.2,1c0.3,2.5-4.6,1.8-6.8,1.8c-8.6,0-17.6-0.1-25.5,0.3
			c-8.2,0.4-16.5,0.1-25,0.3C34.6,164.7,30.9,165.2,31.5,162.1z"/>
		<path fill-rule="evenodd" clip-rule="evenodd" d="M275.4,172c9.6,1.7,17.9,0.4,27.4,0.5c12.6,0.2,30.2,0,45.1,0.3
			c9.9,0.2,25.5,0.9,37,1.6c2.1,0.1,4.2,0.1,4.4,1.3c0.3,2.1-3.4,1.9-6,1.8c-7.6-0.4-14.7-1.1-21.6-1.3c-10-0.2-20.1-0.8-30.5-0.8
			c-15.4,0-32.2,0.4-44.6,0.3c-2.7,0-11.9,1.3-12-2.9C274.8,172.4,275.1,172.1,275.4,172z"/>
		<path fill-rule="evenodd" clip-rule="evenodd" d="M163.9,178.8c-1.7,2-4.6,1.3-6.8,1.3c-2.7,0-5.6-0.2-8.3-0.3
			c-5.6-0.2-11.3-0.3-17.2-0.3c-27,0-57.3-1.4-84.7,1.6c-2.1,0.2-5.4,0.7-8.3,0.8c-2.1,0-6.3,1-6-2.3c0.3-1.9,2.5-0.8,3.4-0.8
			c7.5,0.2,14.2-1.1,21.6-1.6c21-1.2,42.4-0.6,63.3-0.3c12.3,0.2,22-0.9,33.1,0C157.3,177.2,161.2,176.4,163.9,178.8z"/>
		<path fill-rule="evenodd" clip-rule="evenodd" d="M323.1,190.5c-0.8,2.2-4,1.3-5.7,1.3c-6.8,0-13.3-0.4-19.5-0.5
			c-4.4-0.1-8.8,0-13-0.3c-2.2-0.1-4.4-0.4-6.5-0.5c-1.8-0.1-4,0.6-5.2-1c0.1-0.8-0.3-2,0.5-2.1c6.8,0.6,17.8,0.8,25.3,0.8
			c6.4,0,11.6-0.2,18.8,0.3C319.6,188.5,323.1,188.6,323.1,190.5z"/>
		<path fill-rule="evenodd" clip-rule="evenodd" d="M94.9,196.5c-1.6,1.4-3.8,0.7-5.7,0.8c-5.8,0.2-11.9,0.1-18,0
			c-6.3-0.1-12.5-0.9-18.5-1c-3.5-0.1-9,0.6-13.3,0.3c-2.1-0.2-5.6-0.3-5.5-3.1c1.1-1.8,3.9-0.2,6.5,0c8.5,0.7,19.6,0.3,29.7,0.8
			c7.4,0.3,13.4,0.2,20.8-0.3C92.6,193.8,95.2,193.5,94.9,196.5z"/>
	</g>
</g>
</svg>
